<?xml version="1.0" standalone="no"?>
<!DOCTYPE svg PUBLIC "-//W3C//DTD SVG 20010904//EN"
 "http://www.w3.org/TR/2001/REC-SVG-20010904/DTD/svg10.dtd">
<svg version="1.0" xmlns="http://www.w3.org/2000/svg"
 width="720.000000pt" height="720.000000pt" viewBox="0 0 720.000000 720.000000"
 preserveAspectRatio="xMidYMid meet">

<g transform="translate(0.000000,720.000000) scale(0.100000,-0.100000)"
fill="#000000" stroke="none">
<path d="M0 3600 l0 -3600 3600 0 3600 0 0 3600 0 3600 -3600 0 -3600 0 0
-3600z m3631 2750 c-29 -24 -29 -24 -66 0 l-30 20 60 0 60 -1 -24 -19z m-337
-21 c-25 -28 -75 -49 -118 -49 -52 0 -128 49 -78 51 9 0 60 6 112 13 52 7 97
11 99 9 2 -1 -4 -13 -15 -24z m521 -4 c17 -13 55 -46 85 -74 l55 -49 -21 -22
-21 -21 -63 65 c-64 67 -83 76 -137 65 -24 -5 -36 -2 -48 11 -15 16 -13 19 27
39 49 25 78 21 123 -14z m230 11 l80 -12 -43 -25 c-39 -24 -46 -25 -100 -15
-52 10 -122 50 -122 71 0 6 33 2 185 -19z m-540 -5 c60 -28 177 -114 256 -188
l70 -66 -20 -21 -21 -20 -62 60 c-119 116 -221 184 -275 184 -36 0 -78 -28
-123 -81 l-36 -41 -24 20 -25 21 45 46 c55 57 126 105 154 105 12 0 39 -9 61
-19z m-627 -83 c-16 -20 -46 -41 -78 -53 -75 -29 -118 -70 -227 -216 -90 -120
-99 -129 -130 -129 -18 0 -33 3 -33 7 0 8 94 133 170 224 87 105 139 144 229
173 98 32 98 32 69 -6z m221 -3 c74 -49 182 -147 281 -256 82 -89 83 -91 64
-110 -19 -19 -21 -17 -171 130 -174 171 -239 213 -293 191 -45 -19 -131 -118
-232 -270 -50 -74 -92 -136 -93 -138 -7 -8 -55 11 -55 22 0 21 148 230 218
308 96 107 159 158 197 158 18 0 52 -14 84 -35z m1168 -3 c26 -21 79 -74 116
-118 88 -103 230 -306 220 -315 -5 -4 -18 -10 -30 -13 -19 -6 -30 5 -84 86
-134 201 -247 328 -291 328 -48 0 -115 -47 -228 -159 -65 -64 -129 -131 -143
-149 -26 -32 -27 -32 -52 -16 -14 9 -25 20 -25 25 0 20 279 290 339 328 83 53
113 53 178 3z m225 -27 c59 -39 315 -344 301 -359 -4 -3 -19 -6 -34 -6 -24 0
-40 15 -106 103 -130 172 -212 247 -271 247 -20 0 -72 49 -72 67 0 17 137 -23
182 -52z m-952 -20 c10 -12 7 -21 -15 -47 -40 -48 -105 -118 -109 -118 -2 0
-11 12 -21 26 l-17 26 63 64 c67 67 79 73 99 49z m-999 -89 c-60 -61 -143 -92
-203 -75 l-43 11 30 16 c42 22 227 91 245 92 8 0 -5 -19 -29 -44z m2221 3 c43
-16 94 -37 114 -47 l37 -19 -41 -10 c-33 -9 -51 -7 -98 9 -68 23 -82 32 -119
76 l-28 33 29 -7 c16 -4 64 -20 106 -35z m-1675 -124 c51 -42 93 -83 93 -90 0
-7 -6 -18 -14 -24 -12 -10 -34 3 -118 71 -57 46 -114 90 -128 99 -25 16 -25
17 -6 38 19 21 19 21 49 2 17 -11 72 -54 124 -96z m1211 74 c-2 -4 -27 -25
-57 -47 -29 -22 -82 -68 -117 -102 l-64 -62 -20 23 -20 24 62 58 c35 32 89 78
122 103 56 43 60 44 78 28 10 -10 17 -21 16 -25z m-1118 -19 c0 -4 -8 -18 -18
-30 l-17 -22 -19 21 c-16 18 -17 25 -8 46 11 25 13 25 37 9 14 -9 25 -20 25
-24z m906 15 c16 -24 16 -27 -1 -45 -24 -26 -31 -25 -51 5 -16 24 -16 27 1 45
24 26 31 25 51 -5z m-549 -57 c21 -20 22 -23 7 -39 -15 -17 -18 -17 -40 -2
-27 17 -30 33 -12 51 16 16 18 16 45 -10z m193 -3 c7 -9 11 -17 9 -19 -2 -1
-29 -19 -59 -39 -30 -19 -103 -79 -162 -132 l-108 -96 -30 22 -30 22 23 16
c12 8 67 52 122 97 104 85 191 144 211 144 6 0 17 -7 24 -15z m-1377 -22 c69
-6 82 -18 51 -44 -11 -9 -47 -12 -125 -10 -94 2 -114 0 -142 -17 -31 -20 -127
-41 -127 -28 0 10 107 77 147 91 43 16 96 18 196 8z m590 -65 c-21 -22 -55
-53 -76 -70 -36 -29 -38 -29 -62 -14 -14 9 -25 20 -25 24 0 4 25 25 55 46 30
21 64 49 76 62 20 22 23 22 46 7 l24 -16 -38 -39z m2138 44 c24 -12 60 -35 79
-51 l35 -29 -45 5 c-25 3 -62 14 -83 24 -30 15 -60 19 -152 19 -104 0 -115 2
-125 20 -9 16 -7 20 12 25 94 20 222 14 279 -13z m-734 -38 c43 -31 79 -60 81
-64 2 -5 -8 -16 -22 -26 -25 -16 -27 -15 -59 9 -17 14 -52 44 -77 67 -43 40
-44 43 -25 56 10 8 20 14 21 14 2 0 38 -25 81 -56z m-1051 1 c16 -24 15 -27
-16 -75 -35 -55 -37 -56 -63 -36 -17 13 -15 17 20 75 21 33 39 61 40 61 2 0
10 -11 19 -25z m667 -37 c36 -57 37 -61 20 -74 -10 -7 -21 -14 -24 -14 -3 0
-22 24 -41 53 -33 50 -34 54 -19 74 9 12 18 22 21 22 3 0 22 -27 43 -61z
m-938 -68 c-41 -41 -56 -50 -80 -49 -16 2 -33 4 -37 6 -4 2 23 33 60 68 66 63
67 64 87 44 19 -19 19 -19 -30 -69z m702 39 c47 -52 110 -136 128 -170 l14
-27 -52 29 c-34 18 -72 52 -110 99 -56 69 -58 73 -41 91 9 10 19 19 21 19 1 0
20 -19 40 -41z m513 -19 c32 -33 55 -62 51 -65 -5 -2 -24 -2 -44 2 -48 7 -116
85 -97 108 19 23 28 19 90 -45z m1021 -31 c109 -47 187 -190 242 -439 44 -202
44 -182 6 -178 -40 4 -44 11 -64 128 -21 116 -73 264 -116 331 -19 30 -49 60
-78 77 -45 27 -48 27 -216 26 -135 0 -191 -5 -272 -22 -94 -20 -240 -68 -324
-105 -34 -15 -35 -15 -35 5 1 12 -5 23 -11 25 -8 3 -13 -4 -13 -16 0 -12 -6
-21 -13 -21 -7 0 -30 -18 -52 -40 l-38 -39 26 -10 c19 -7 36 -6 66 6 23 9 41
20 41 25 0 4 7 8 15 8 9 0 28 8 43 17 16 10 22 11 15 3 -14 -16 0 -40 23 -40
18 0 18 -19 0 -39 -17 -21 -30 -101 -16 -101 6 0 20 16 31 35 12 19 24 33 28
30 4 -2 7 16 7 41 -1 35 2 44 14 41 16 -3 16 -10 5 -39 -6 -14 -2 -18 17 -18
39 0 62 23 54 54 -5 21 -11 25 -29 21 -16 -4 -31 1 -48 15 l-24 21 25 -7 c14
-4 30 -9 37 -11 6 -2 10 4 10 13 -1 11 6 20 18 22 11 2 24 9 28 16 5 7 7 3 5
-9 -2 -11 -11 -19 -20 -19 -10 1 -14 -4 -11 -12 7 -20 17 -18 52 12 29 24 44
21 19 -4 -18 -18 20 -44 45 -30 27 14 74 0 82 -25 15 -45 14 -57 -6 -47 -10 6
-27 10 -38 10 -12 0 -30 5 -40 12 -15 9 -24 7 -46 -10 -15 -12 -35 -22 -44
-22 -46 0 -89 -21 -101 -50 -14 -33 -33 -52 -24 -23 5 15 4 16 -5 3 -15 -22 8
-36 71 -43 60 -7 75 1 58 33 -11 21 -10 22 9 17 16 -4 21 -1 21 14 0 24 5 24
47 -2 27 -17 33 -26 29 -47 -2 -15 -5 -31 -5 -35 -1 -4 -10 -3 -22 4 -20 10
-21 9 -15 -33 7 -42 6 -42 -8 -18 -9 14 -15 33 -16 43 0 19 -11 22 -25 8 -6
-6 -41 -4 -89 5 -84 14 -99 11 -168 -37 -18 -13 -58 -22 -130 -29 -66 -7 -135
-22 -193 -42 -122 -41 -142 -53 -197 -106 -57 -55 -64 -45 -10 12 20 23 25 31
11 18 -14 -12 -29 -22 -33 -22 -14 0 6 21 46 51 23 16 36 29 30 29 -7 0 -30
-16 -52 -36 -43 -39 -67 -96 -56 -138 7 -30 58 -80 104 -102 23 -11 40 -30 53
-60 11 -24 25 -44 31 -44 17 0 48 31 49 49 0 10 2 12 6 4 5 -14 53 -17 91 -6
36 9 6 23 -53 23 -27 0 -56 4 -64 9 -8 5 34 7 100 4 83 -4 124 -11 151 -24 46
-23 66 -24 98 -2 l25 16 -25 -29 c-14 -16 -34 -37 -45 -47 -19 -18 -19 -18 13
-2 17 8 32 22 32 29 0 7 7 20 16 27 9 8 28 31 42 53 l25 40 -23 18 c-22 18
-66 23 -107 12 -16 -4 -23 -14 -23 -30 0 -13 -4 -24 -10 -24 -5 0 -10 5 -10
11 0 5 -4 7 -10 4 -5 -3 -10 -1 -10 4 0 6 18 23 40 37 l40 27 -42 19 c-23 10
-57 30 -76 44 -32 25 -34 25 -53 8 -17 -15 -17 -19 -4 -34 13 -14 11 -19 -15
-44 -17 -15 -30 -24 -30 -19 0 4 -4 14 -9 21 -6 11 -20 7 -65 -18 -31 -18 -56
-30 -56 -27 0 2 25 21 55 41 90 60 137 106 124 122 -19 23 -51 16 -103 -21
-27 -19 -56 -35 -64 -35 -9 0 -23 -7 -32 -15 -11 -10 -24 -12 -45 -6 -29 7
-28 8 25 21 30 7 81 30 114 51 32 22 63 39 70 39 6 0 28 -14 49 -31 33 -28 37
-29 37 -10 0 11 11 29 26 40 27 21 18 23 144 -25 54 -20 63 -18 55 13 -9 36
-21 51 -48 56 -19 4 -18 4 4 6 44 2 65 -41 78 -164 l6 -60 52 70 c30 40 55 85
58 105 4 19 10 45 15 57 7 18 5 25 -10 33 -26 14 -67 13 -72 -2 -3 -9 -9 -8
-22 5 -10 9 -28 17 -41 17 -13 0 -27 5 -31 11 -5 9 1 10 22 4 16 -4 55 -9 87
-10 84 -4 100 -25 72 -97 -9 -23 25 -24 86 -3 24 9 76 17 116 19 61 2 69 0 55
-10 -23 -18 -1 -17 24 0 19 14 21 13 21 -13 0 -22 -4 -27 -17 -24 -19 5 -34
-22 -23 -40 3 -7 2 -9 -2 -4 -5 4 -17 0 -27 -10 -11 -9 -18 -11 -18 -5 0 7 4
12 9 12 5 0 8 15 7 33 -1 25 -6 33 -25 35 -37 6 -71 -7 -71 -25 0 -13 3 -14
12 -5 13 13 28 16 28 5 0 -5 -13 -16 -30 -25 -29 -16 -30 -16 -27 5 2 20 -2
22 -38 19 -45 -4 -76 -28 -103 -81 -10 -20 -37 -65 -61 -101 -24 -38 -37 -66
-31 -68 6 -2 31 3 55 13 54 20 108 78 100 106 -4 13 -2 19 8 19 8 0 14 8 13
18 -2 23 28 22 32 -2 2 -11 -5 -26 -15 -35 -20 -16 -63 -74 -63 -85 0 -10 106
-7 133 3 36 14 40 39 18 109 -22 72 -12 75 13 5 10 -26 20 -55 23 -63 4 -8 5
-18 5 -22 -3 -11 16 -10 56 2 29 8 37 6 58 -15 28 -28 31 -70 7 -97 -15 -17
-15 -18 6 -18 12 0 31 4 41 10 17 9 17 12 0 67 -14 46 -25 63 -54 82 -20 13
-36 32 -36 41 0 13 9 9 36 -16 19 -19 40 -34 45 -34 5 0 9 16 9 35 0 19 2 35
4 35 1 0 17 -5 34 -11 31 -11 35 -39 6 -39 -22 0 -36 -38 -29 -84 11 -69 18
-74 59 -42 20 15 36 35 36 45 0 24 -25 45 -45 37 -12 -4 -13 -2 -2 14 6 11 16
20 20 20 5 0 5 10 2 23 -4 15 -3 18 3 9 7 -11 10 -11 15 2 4 9 16 16 27 16 11
0 20 7 20 15 0 18 -16 20 -23 3 -4 -8 -8 -4 -12 9 -7 21 -11 22 -79 17 -112
-8 -176 -37 -196 -88 -9 -21 -9 -21 -9 0 -1 25 30 55 87 83 23 12 42 27 42 34
0 8 11 24 25 37 23 21 24 25 10 40 -15 16 -14 17 12 17 15 0 22 -2 15 -4 -23
-9 -1 -23 26 -17 25 5 26 4 9 -9 -23 -19 -7 -30 28 -21 20 5 23 9 13 15 -9 6
-5 9 15 9 15 0 27 -4 27 -10 0 -5 -6 -10 -14 -10 -15 0 -66 -38 -66 -49 0 -7
56 0 110 14 23 6 24 5 7 -8 -13 -11 -16 -25 -14 -59 5 -61 12 -69 43 -58 24
10 25 9 22 -28 -3 -34 -6 -38 -43 -47 -42 -10 -138 -82 -129 -97 3 -4 21 -8
41 -8 31 0 44 9 94 60 32 33 60 60 62 60 2 0 2 -11 -1 -25 -2 -15 0 -25 7 -25
6 0 11 -5 11 -11 0 -7 -11 -9 -29 -6 -22 5 -34 0 -51 -18 -27 -29 -28 -26 27
-54 l42 -21 35 42 c20 23 36 51 36 62 0 12 4 27 9 34 10 17 61 -40 61 -69 0
-12 4 -17 11 -13 6 3 9 15 6 25 -3 11 -2 19 1 19 4 0 17 3 30 6 17 5 22 2 22
-14 0 -14 8 -21 29 -24 17 -2 28 -1 25 3 -5 9 15 23 22 16 8 -8 -24 -77 -35
-77 -5 0 -17 10 -25 22 -12 17 -16 19 -16 6 0 -9 6 -19 13 -22 10 -5 10 -7 0
-12 -16 -7 -17 -40 -3 -49 6 -4 22 1 35 9 l25 16 0 -37 c0 -29 -3 -34 -12 -25
-16 16 -55 15 -61 0 -3 -7 -6 -1 -6 13 -1 36 -10 40 -32 18 -10 -10 -33 -19
-49 -19 -24 0 -33 -6 -41 -27 -9 -25 0 -42 24 -43 4 0 7 -4 7 -9 0 -6 -12 -6
-32 -1 -20 6 -36 6 -44 0 -8 -8 -14 -4 -19 12 -6 22 -7 21 -17 -10 -8 -25 -15
-31 -27 -26 -9 4 -31 9 -49 12 l-34 4 24 -36 c28 -44 49 -52 88 -33 27 14 33
14 70 -4 22 -11 40 -21 40 -23 0 -2 -23 1 -51 5 -57 9 -72 5 -112 -28 -32 -26
-57 -32 -38 -9 13 16 11 17 -47 48 l-34 17 8 -77 c7 -75 6 -76 -12 -57 -13 12
-15 20 -7 22 17 6 5 105 -15 120 -11 9 -18 10 -22 2 -4 -6 -14 0 -24 15 -14
22 -14 26 -2 26 8 0 18 -4 21 -10 3 -5 17 -10 29 -10 13 0 29 -7 36 -15 6 -8
22 -17 33 -21 12 -3 32 -16 45 -27 31 -29 28 -17 -14 44 -39 59 -70 88 -95 89
-14 0 -116 -37 -129 -47 -12 -10 36 -73 70 -92 36 -20 38 -24 42 -77 4 -75 -7
-102 -18 -44 -5 25 -7 56 -6 69 6 48 -53 57 -69 11 -6 -16 -15 -30 -20 -30 -6
0 -6 8 0 19 6 10 7 21 3 25 -3 4 0 11 7 15 30 19 -25 99 -92 132 -33 17 -54
20 -123 17 -45 -1 -86 -7 -90 -11 -5 -4 5 -19 21 -33 30 -25 70 -28 120 -8 18
7 18 6 6 -9 -7 -9 -28 -21 -45 -26 l-31 -9 37 -16 c51 -22 65 -20 85 12 33 50
43 57 43 26 0 -15 -18 -52 -40 -85 -46 -68 -52 -108 -17 -132 12 -9 16 -16 10
-16 -7 -1 -22 8 -34 20 -17 17 -20 30 -17 85 2 46 0 64 -9 64 -9 0 -11 -16 -6
-60 4 -42 2 -60 -6 -60 -6 0 -11 -5 -11 -11 0 -5 5 -7 10 -4 6 3 10 -3 10 -14
0 -12 -5 -18 -13 -16 -6 3 -18 -4 -24 -15 -12 -18 -11 -19 12 -10 14 5 67 12
118 16 117 8 168 -5 219 -56 39 -39 48 -34 23 10 -30 53 -8 108 39 96 32 -8
25 -26 -10 -26 -29 0 -32 -28 -9 -84 9 -20 13 -41 10 -46 -8 -12 -7 -12 54 1
87 18 116 82 63 136 -15 15 -26 36 -24 46 7 32 35 13 37 -26 1 -10 7 -23 13
-29 7 -7 19 5 42 46 30 53 83 97 98 81 8 -8 -18 -25 -39 -25 -15 0 -45 -48
-35 -57 3 -3 26 3 51 12 30 12 44 23 41 32 -3 7 -1 13 3 13 9 0 21 -24 21 -41
0 -5 -12 -9 -27 -9 -46 -1 -117 -41 -127 -73 -7 -19 -6 -31 3 -40 10 -9 30 -3
99 35 48 25 92 55 97 66 20 38 38 52 64 51 l26 -1 -29 -12 c-16 -8 -36 -28
-45 -46 -12 -25 -27 -37 -58 -48 -24 -7 -43 -17 -43 -22 0 -8 77 -30 108 -30
21 0 76 39 68 47 -7 7 14 27 36 35 10 4 19 1 22 -8 3 -8 13 -14 21 -14 15 0
15 -2 1 -15 -8 -8 -20 -15 -27 -15 -21 0 -99 -41 -99 -52 0 -6 20 -7 53 -4 40
5 48 4 34 -4 -12 -8 -15 -15 -8 -23 5 -7 16 -32 25 -57 l15 -45 -29 35 c-16
19 -30 40 -30 45 0 6 -4 16 -9 24 -8 12 -13 12 -35 -2 -22 -15 -24 -20 -14
-47 10 -30 8 -57 -6 -92 -6 -12 0 -18 24 -23 37 -8 35 -27 -3 -31 -18 -2 -27
2 -27 12 0 8 -4 14 -10 14 -11 0 -13 -30 -4 -54 7 -19 45 -21 62 -4 9 9 12 9
12 0 0 -7 7 -12 16 -12 9 0 12 -5 8 -12 -4 -7 -4 -10 0 -6 4 3 8 10 8 15 -1 4
7 16 16 26 12 14 13 20 4 26 -7 4 3 7 22 8 25 1 33 -3 30 -12 -3 -7 -1 -16 5
-20 21 -12 11 -24 -29 -35 -21 -6 -46 -17 -54 -25 -8 -8 -19 -15 -24 -15 -15
0 -23 -29 -16 -56 7 -28 32 -44 66 -44 22 1 22 1 4 15 -10 7 -15 18 -11 24 10
17 22 13 28 -8 5 -20 73 -45 105 -39 22 4 29 48 8 48 -23 0 -31 46 -19 114 7
44 7 63 -1 68 -13 9 16 98 47 141 l20 29 25 -25 25 -26 -23 -53 c-28 -62 -34
-195 -12 -265 20 -67 107 -188 209 -291 52 -52 92 -96 90 -98 -2 -2 -17 -7
-34 -10 -26 -5 -39 2 -100 54 -85 74 -151 150 -202 234 -34 56 -42 63 -72 65
-108 8 -143 18 -156 43 -15 30 -17 76 -3 85 18 11 10 25 -15 25 -13 0 -28 -7
-33 -16 -8 -14 -10 -14 -22 1 -10 12 -11 18 -2 24 8 5 9 17 2 39 -7 27 -4 41
16 81 24 46 25 51 11 78 -10 19 -12 34 -6 44 17 27 9 36 -33 42 -24 4 -58 9
-75 13 -32 6 -33 6 -33 -30 0 -26 -4 -36 -16 -36 -8 0 -12 4 -9 10 11 18 14
50 5 50 -5 0 -29 -13 -52 -29 -24 -15 -56 -36 -73 -46 l-29 -18 34 -13 c19 -7
44 -13 55 -13 18 0 17 2 -8 22 -34 28 -24 44 11 17 39 -31 118 -28 154 7 15
14 31 23 35 19 4 -4 3 -10 -2 -14 -12 -9 -13 -42 -1 -60 12 -20 -10 -40 -26
-24 -9 9 -9 12 2 13 36 2 -50 28 -93 29 -47 0 -48 -1 -45 -27 3 -29 44 -56 99
-67 37 -8 69 -86 35 -86 -8 0 -19 -13 -24 -29 -10 -28 -9 -30 21 -36 36 -8 82
-47 103 -87 18 -34 73 -66 84 -48 5 9 9 9 14 1 4 -6 18 -8 33 -5 18 5 24 3 19
-5 -10 -15 -108 -14 -128 2 -8 6 -27 34 -42 60 -28 49 -44 59 -106 70 -56 10
-67 -3 -45 -55 22 -51 40 -68 72 -68 13 0 23 -4 23 -9 0 -42 -83 3 -100 54
-15 45 -25 50 -55 31 -27 -18 -33 -36 -12 -36 18 0 38 -15 40 -31 2 -8 13 -29
25 -47 33 -46 12 -40 -32 9 -34 39 -40 41 -77 36 -22 -3 -44 -8 -47 -12 -4 -4
13 -24 37 -46 62 -55 138 -74 184 -45 19 13 66 20 105 17 6 -1 12 -10 12 -21
0 -27 34 -26 53 1 10 14 17 17 22 9 4 -7 16 -9 27 -7 15 4 17 3 8 -8 -6 -7
-38 -19 -71 -26 -54 -12 -62 -17 -82 -53 -18 -33 -29 -42 -62 -48 -62 -13 -72
-18 -56 -27 7 -5 29 -4 48 2 28 9 40 8 69 -8 42 -23 51 -15 36 32 -9 30 -8 39
6 58 15 18 20 20 30 9 19 -21 53 -17 59 5 4 16 8 18 23 9 10 -7 16 -18 13 -25
-3 -7 0 -13 6 -13 6 0 11 5 11 12 0 6 3 8 7 5 3 -4 1 -18 -7 -31 -19 -36 -7
-58 27 -51 l28 6 -28 -25 c-25 -23 -37 -26 -100 -26 -53 0 -82 5 -110 20 -35
19 -87 19 -87 1 0 -4 25 -22 55 -40 54 -33 56 -33 97 -19 33 10 48 11 66 2 20
-10 15 -12 -43 -18 -36 -4 -70 -4 -75 -1 -6 4 -10 -3 -10 -15 0 -15 11 -25 35
-36 19 -8 35 -20 35 -28 0 -7 9 -21 20 -31 29 -26 24 -40 -7 -20 -25 17 -27
17 -40 -1 -7 -10 -13 -21 -13 -25 0 -4 -13 -12 -30 -18 -18 -6 -30 -6 -30 0 0
5 7 9 15 9 20 0 49 46 41 66 -3 8 -10 12 -16 9 -5 -3 -10 0 -10 8 0 8 -6 19
-13 25 -19 16 -70 -20 -79 -55 -7 -24 -3 -33 33 -67 38 -36 43 -38 54 -22 9
12 15 14 20 6 4 -6 12 -9 19 -7 6 2 22 8 36 12 23 7 24 6 11 -9 -19 -23 -63
-44 -79 -39 -7 3 -20 2 -29 -1 -14 -6 -13 -10 7 -31 28 -30 9 -33 -27 -5 -33
26 -43 25 -44 -2 -2 -44 -18 58 -18 120 -1 39 -5 61 -11 57 -5 -3 -10 -16 -10
-28 -1 -20 -2 -20 -16 6 -20 37 -36 34 -32 -5 2 -25 8 -33 21 -31 15 1 18 -4
12 -25 -6 -27 -30 -52 -48 -52 -6 0 -3 8 6 18 21 23 21 36 1 53 -9 7 -14 22
-11 36 6 32 -31 57 -81 55 l-37 -2 32 20 c33 19 52 72 39 105 -8 23 -68 55
-101 55 -34 -1 -52 -21 -79 -90 -14 -35 -15 -52 -7 -85 5 -22 13 -53 16 -69
l6 -29 21 21 21 21 -23 19 c-22 18 -23 22 -11 51 13 30 39 46 27 16 -3 -8 -2
-15 3 -15 5 0 7 -14 5 -31 -4 -28 -2 -31 20 -25 18 4 28 0 40 -19 18 -27 21
-49 6 -40 -5 3 -10 -1 -10 -9 0 -9 5 -16 10 -16 6 0 10 -12 10 -27 0 -24 -2
-23 -31 20 -32 49 -55 59 -66 30 -4 -10 -11 -21 -16 -25 -7 -4 -5 -18 3 -38
l13 -31 28 27 c16 15 29 23 29 18 0 -6 -11 -21 -25 -34 -14 -14 -25 -35 -25
-50 0 -16 -11 -37 -29 -54 -27 -26 -28 -31 -16 -50 13 -19 12 -22 -10 -33 -16
-7 -27 -7 -31 -2 -10 18 -34 -12 -34 -43 0 -39 27 -35 55 9 17 28 26 32 63 33
35 0 42 3 42 20 0 11 -4 20 -10 20 -5 0 -10 5 -10 10 0 6 7 10 15 10 8 0 15 8
15 18 0 14 -2 15 -10 2 -7 -11 -12 -12 -21 -3 -8 8 -6 14 10 22 12 7 28 28 36
48 15 35 16 35 35 18 11 -10 20 -27 20 -37 0 -10 7 -21 15 -24 25 -10 17 -21
-15 -21 -21 0 -30 5 -30 16 -1 13 -4 12 -16 -4 -8 -11 -12 -26 -9 -33 3 -7 0
-22 -5 -33 -9 -15 -6 -24 14 -42 26 -24 42 -72 26 -82 -5 -3 -21 2 -35 11 -14
9 -32 13 -42 10 -14 -6 -10 -12 21 -38 20 -16 35 -32 33 -35 -2 -2 -30 6 -61
18 -38 14 -61 29 -68 45 -13 29 -23 30 -40 5 -10 -14 -21 -18 -41 -14 -22 4
-25 8 -16 19 7 8 8 25 4 41 -7 26 -8 26 -15 8 -7 -15 -9 -16 -9 -4 -1 9 6 22
14 29 8 7 12 16 10 21 -3 4 2 12 12 18 17 9 16 11 -2 31 -33 37 -54 43 -80 26
-28 -19 -49 -21 -39 -5 11 18 -17 29 -73 29 -28 0 -54 4 -57 9 -8 12 20 22 40
14 10 -3 22 0 28 8 14 18 64 23 82 8 19 -16 28 -6 19 21 -6 18 -12 21 -36 16
-15 -3 -31 -1 -34 4 -3 6 1 10 9 10 30 0 23 15 -7 17 -20 2 -46 -7 -72 -24
l-40 -26 29 32 c17 17 37 31 47 31 40 0 85 29 97 63 12 34 50 74 100 107 22
14 17 15 -66 18 -85 2 -90 1 -131 -28 -23 -17 -49 -46 -56 -63 -11 -24 -14
-27 -15 -12 0 11 7 31 16 43 15 21 14 24 -7 41 -23 18 -24 18 -77 -7 -47 -24
-51 -28 -36 -39 31 -23 61 -16 73 17 5 17 11 30 13 30 2 0 3 -31 3 -70 0 -76
-8 -90 -22 -35 -8 33 -9 34 -33 22 -34 -17 -32 -40 5 -48 29 -6 29 -7 -7 -8
-46 -1 -66 24 -41 52 22 23 2 47 -22 27 -15 -13 -17 -40 -2 -51 4 -3 -2 -14
-13 -24 -11 -10 -20 -13 -20 -7 0 6 -7 9 -15 6 -17 -7 -18 -3 -9 20 3 9 11 13
17 9 5 -3 7 -1 3 5 -3 5 6 24 20 41 23 28 24 32 10 47 -9 8 -18 27 -22 42 -3
15 -9 34 -13 42 -5 9 1 22 17 37 26 24 51 21 31 -4 -10 -12 -10 -16 2 -24 12
-8 11 -11 -3 -20 -22 -12 -23 -42 -3 -59 21 -17 35 -3 35 36 0 23 4 33 11 28
6 -3 9 -19 7 -35 -3 -16 -1 -29 3 -29 14 0 69 52 69 65 0 7 7 15 15 19 8 3 15
15 15 26 0 11 5 20 10 20 18 0 11 -43 -11 -66 -23 -25 -20 -50 7 -61 8 -3 38
5 65 18 45 20 55 22 102 12 82 -17 127 12 127 80 0 22 -3 23 -92 22 -119 0
-144 13 -203 104 -24 38 -49 72 -56 77 -15 9 -8 -2 39 -69 19 -26 32 -50 30
-52 -3 -3 -41 29 -86 71 -45 42 -82 70 -82 64 0 -19 -163 -1 -255 28 -98 30
-205 34 -250 9 -16 -9 -36 -17 -43 -17 -7 0 -27 -7 -44 -16 -18 -9 -27 -11
-23 -4 4 7 33 24 64 38 55 26 55 26 24 30 -40 4 -87 -19 -140 -71 -49 -47 -52
-44 -19 21 27 52 88 116 126 131 23 9 23 10 4 10 -30 1 -114 -57 -141 -98 -34
-51 -38 -94 -20 -220 9 -63 15 -117 13 -119 -8 -7 -68 90 -83 135 -29 86 -8
221 46 289 9 11 2 5 -16 -13 -43 -47 -67 -140 -61 -233 5 -62 11 -79 56 -153
48 -79 80 -162 67 -175 -7 -7 -4 -11 -72 91 -56 85 -93 170 -93 218 0 17 -4
28 -8 25 -12 -7 3 -125 20 -166 8 -19 43 -72 77 -117 60 -79 63 -87 97 -220
l34 -138 -21 -94 c-20 -85 -21 -102 -10 -170 6 -41 16 -92 23 -113 22 -75 106
-145 193 -163 17 -3 3 6 -29 20 -66 28 -100 56 -122 97 -22 42 -17 41 30 -7
41 -40 162 -112 172 -102 3 3 -14 16 -38 30 -66 39 -138 106 -176 165 -29 46
-34 63 -34 112 0 65 10 120 21 120 5 0 6 -22 3 -49 -3 -38 1 -61 21 -104 40
-89 96 -141 216 -202 75 -38 131 -76 191 -130 99 -88 121 -97 312 -120 220
-27 334 -75 459 -193 52 -48 79 -84 104 -137 41 -84 43 -103 13 -109 -68 -15
-69 -15 -105 56 -45 88 -98 147 -189 207 -79 54 -155 82 -213 80 -28 -1 -20
-4 31 -14 37 -8 75 -18 85 -24 23 -13 7 -14 -37 -1 -19 6 -91 14 -160 19 -151
11 -209 31 -300 101 -108 84 -208 148 -267 170 -86 32 -108 48 -165 120 -28
36 -56 69 -60 75 -5 5 8 -28 29 -74 46 -102 103 -168 175 -203 29 -14 97 -47
150 -72 66 -33 116 -66 160 -106 l63 -59 -87 -1 c-83 0 -91 2 -140 34 -29 18
-93 53 -142 77 -99 49 -192 126 -213 177 -20 49 -8 51 16 3 22 -41 99 -110
155 -137 31 -15 31 -14 -4 13 -19 15 -61 53 -92 84 -70 70 -89 127 -92 265 -1
81 -3 91 -14 76 -10 -12 -12 -39 -9 -95 3 -47 1 -75 -4 -71 -6 3 -8 -4 -4 -18
2 -12 9 -52 15 -87 13 -86 50 -159 118 -232 87 -95 127 -111 307 -121 306 -17
364 -33 469 -129 108 -98 193 -258 214 -401 10 -66 7 -69 -52 -35 -36 20 -43
32 -76 117 -61 162 -161 284 -277 338 -54 24 -66 26 -173 23 -63 -2 -142 -4
-175 -4 -33 -1 -77 1 -99 5 -36 7 -38 6 -31 -15 13 -42 18 -270 6 -314 -7 -24
-15 -43 -20 -43 -4 0 -20 14 -36 30 -29 30 -29 31 -30 163 0 152 -5 167 -105
297 -87 114 -111 167 -140 313 -18 91 -21 61 -5 -42 9 -51 27 -116 41 -144
l25 -52 -25 28 c-32 35 -118 179 -148 249 -24 56 -30 139 -15 211 12 59 -9 36
-23 -24 -16 -67 -8 -132 29 -221 34 -80 35 -97 1 -44 -32 52 -36 44 -6 -11 15
-25 24 -48 22 -51 -8 -8 -44 59 -67 125 -13 35 -26 63 -29 63 -12 0 8 -101 25
-126 8 -13 35 -46 60 -74 60 -67 85 -119 85 -175 0 -49 -29 -122 -60 -150 -18
-16 -21 -16 -49 5 -17 12 -31 22 -31 23 0 1 11 24 25 51 14 27 25 62 25 77 0
53 -121 159 -181 159 -50 0 -109 -67 -109 -125 0 -41 77 -114 244 -232 188
-132 261 -191 401 -318 149 -136 189 -167 268 -210 58 -32 67 -41 67 -65 0
-39 -9 -60 -26 -60 -27 0 -148 60 -199 99 -28 21 -111 94 -185 161 -165 151
-239 210 -405 325 -166 116 -231 176 -246 225 -10 34 -9 44 12 86 13 27 57 82
103 127 l80 79 17 -24 c10 -13 46 -46 81 -72 l63 -48 -77 74 c-43 41 -78 81
-78 89 0 8 -10 3 -26 -14 -14 -16 -57 -51 -95 -78 -37 -28 -86 -71 -109 -96
-22 -25 -40 -43 -40 -39 0 15 63 143 111 227 59 105 123 177 219 250 38 29 67
55 65 57 -9 9 -106 -67 -180 -142 -73 -74 -88 -96 -164 -246 -46 -91 -88 -166
-93 -168 -4 -2 -8 -10 -8 -19 0 -8 -16 -51 -36 -96 -45 -103 -57 -177 -43
-286 10 -84 10 -84 -17 -112 -15 -16 -33 -29 -40 -29 -30 0 -49 206 -31 328
l8 54 -33 -8 c-18 -4 -67 -6 -108 -4 -239 10 -271 7 -344 -29 -95 -46 -170
-126 -228 -238 -25 -48 -51 -112 -59 -142 -12 -49 -17 -55 -57 -72 -24 -11
-48 -19 -53 -19 -13 0 1 86 28 170 51 159 161 295 292 364 80 42 88 43 347 55
148 6 177 11 218 31 69 33 124 112 181 262 80 208 105 248 250 398 189 197
248 280 261 367 3 23 10 40 15 37 12 -7 12 -3 -11 84 -10 43 -24 111 -30 152
-6 41 -18 96 -26 122 -22 67 -90 127 -184 163 -41 15 -83 32 -92 37 -10 5 -18
6 -18 3 0 -3 31 -20 68 -38 143 -69 172 -99 209 -217 21 -67 40 -194 26 -173
-5 6 -7 -22 -5 -63 7 -135 -46 -243 -204 -414 -120 -129 -177 -216 -240 -361
-59 -136 -99 -184 -196 -234 -40 -21 -103 -55 -140 -76 -64 -37 -70 -39 -155
-39 l-88 1 52 47 c31 28 109 77 195 122 78 41 163 93 187 115 45 41 115 128
145 180 17 30 17 30 -1 6 -10 -14 -26 -34 -36 -45 -18 -21 -18 -21 -12 4 14
54 139 224 284 385 80 89 141 185 141 221 0 11 -9 1 -21 -23 -27 -55 -70 -89
-196 -152 -120 -60 -161 -97 -208 -191 -33 -66 -64 -104 -51 -64 3 11 15 50
27 89 28 92 61 122 226 201 155 75 184 104 191 187 4 57 -14 95 -41 84 -8 -3
-42 -41 -75 -84 -62 -82 -90 -107 -182 -162 -30 -18 -67 -45 -82 -59 l-28 -26
0 25 c0 32 36 66 119 114 65 38 115 84 208 189 28 32 56 55 62 51 18 -11 43
-66 51 -114 l8 -46 1 40 c1 43 -26 112 -52 134 -15 12 -25 6 -85 -50 -42 -40
-97 -78 -145 -102 -43 -22 -85 -50 -95 -63 -9 -14 -25 -35 -35 -47 -18 -22
-18 -22 -13 17 6 48 51 98 119 132 56 29 123 87 141 123 7 14 16 44 20 66 l7
40 -26 -45 c-36 -62 -67 -92 -163 -162 -92 -66 -101 -80 -112 -152 l-8 -51 -1
53 c-2 78 17 111 122 214 77 76 98 102 111 144 34 103 -3 179 -145 301 -118
102 -156 128 -99 70 24 -26 42 -47 40 -47 -3 0 -32 14 -64 30 -32 17 -73 30
-90 30 -54 0 -188 -37 -266 -74 -86 -40 -77 -49 10 -10 54 24 61 25 146 15
103 -11 202 -35 218 -52 8 -9 7 -11 -6 -6 -9 3 -34 9 -55 13 -21 4 -52 13 -70
21 -52 21 -172 17 -229 -8 -27 -13 -86 -26 -134 -30 -47 -5 -98 -14 -115 -19
-27 -10 -29 -9 -14 5 9 9 44 20 78 25 78 11 96 25 21 16 -38 -4 -50 -3 -40 4
8 5 12 10 8 10 -13 0 -93 -58 -122 -89 -17 -17 -34 -31 -40 -31 -5 0 7 18 29
40 21 22 36 42 34 45 -7 7 -70 -59 -72 -76 -3 -19 -94 -102 -137 -125 -45 -23
-133 -23 -178 0 -19 10 -36 16 -38 14 -8 -9 19 -81 38 -100 18 -18 28 -20 90
-14 60 6 75 4 115 -15 33 -16 50 -19 62 -12 18 11 28 53 12 53 -18 0 -33 39
-22 58 10 16 10 16 11 0 0 -25 41 -84 72 -102 26 -16 26 -16 35 22 6 27 14 38
31 40 23 4 29 17 12 27 -6 4 -8 10 -5 15 4 6 14 5 25 -2 10 -7 16 -16 14 -20
-3 -4 -1 -8 5 -8 16 0 2 -60 -21 -93 -19 -27 -19 -28 1 -53 11 -14 17 -33 14
-42 -4 -13 -3 -14 5 -3 10 13 14 10 25 -21 5 -15 1 -17 -34 -12 -21 3 -53 1
-69 -4 -32 -12 -51 1 -31 21 8 8 11 8 11 -1 0 -10 5 -10 20 -2 11 6 20 8 20 5
0 -4 7 1 16 9 19 19 15 51 -6 51 -9 0 -15 -9 -14 -22 1 -27 3 -27 -32 -9 -32
17 -44 13 -37 -13 3 -10 0 -22 -6 -25 -7 -5 -11 8 -11 38 0 57 -8 76 -31 76
-23 0 -25 -13 -4 -30 8 -7 15 -23 15 -36 0 -25 -15 -40 -24 -25 -4 5 -1 11 6
13 19 7 -12 48 -59 81 -36 25 -46 27 -119 25 l-80 -3 52 -48 c28 -26 55 -58
58 -72 6 -24 68 -65 99 -65 7 0 26 -13 42 -30 35 -36 24 -40 -17 -5 -29 25
-58 33 -58 16 0 -5 12 -16 26 -26 14 -9 23 -19 20 -22 -3 -3 -22 7 -41 22
l-36 27 -25 -23 c-29 -27 -32 -12 -4 24 13 16 16 28 10 32 -6 3 -19 24 -30 46
-25 47 -40 50 -41 7 -1 -29 -2 -27 -9 11 -7 46 -40 84 -69 79 -30 -6 -42 -116
-15 -138 8 -8 36 -19 62 -25 38 -10 49 -17 57 -41 7 -21 15 -29 30 -26 16 3
17 1 5 -7 -10 -7 -11 -11 -3 -11 7 0 12 -6 10 -12 -1 -8 6 -12 18 -10 29 5 31
10 9 27 -16 12 -17 14 -3 15 9 0 27 -9 40 -19 18 -14 28 -17 43 -9 14 7 22 6
34 -6 15 -15 11 -16 -43 -16 -63 0 -92 -11 -81 -29 10 -16 -1 -14 -34 6 -28
16 -30 16 -64 -11 -40 -30 -44 -41 -20 -50 9 -4 14 -13 10 -21 -3 -9 0 -15 9
-15 9 0 15 -9 15 -22 0 -18 -2 -20 -10 -8 -15 24 -24 -14 -10 -41 11 -19 10
-21 -4 -16 -8 3 -18 2 -21 -4 -4 -5 -17 -1 -33 10 -27 19 -27 19 -45 -5 -10
-13 -33 -30 -51 -38 -82 -34 -98 -29 -44 13 21 17 32 21 37 12 10 -16 61 24
61 49 0 23 -51 44 -85 36 -14 -4 -35 -16 -46 -27 -33 -33 -33 -14 0 23 20 24
27 38 21 48 -6 9 -5 17 3 22 8 5 3 8 -11 8 -12 0 -25 7 -29 16 -4 11 -13 14
-29 10 -30 -8 -31 5 -3 22 11 7 18 19 16 27 -6 15 26 49 36 38 4 -3 7 -14 7
-24 0 -10 11 -26 24 -36 22 -18 22 -20 8 -31 -16 -10 -15 -11 0 -6 20 7 26
-20 8 -31 -19 -12 -10 -33 18 -39 15 -4 36 -10 47 -13 17 -5 18 -4 6 11 -9 11
-10 16 -2 16 7 0 10 4 7 9 -4 5 -1 11 6 13 7 3 -4 21 -26 46 -27 29 -37 48
-33 62 3 14 -3 29 -19 45 -13 13 -24 31 -24 39 0 8 -5 16 -10 18 -6 2 -2 13
10 26 16 17 17 22 6 22 -18 0 -40 -36 -31 -50 3 -5 1 -18 -5 -27 -8 -14 -10
-7 -5 32 3 28 6 61 8 75 3 35 -30 49 -87 36 -43 -10 -44 -11 -28 -29 15 -17
15 -20 -1 -49 -17 -29 -17 -32 -1 -49 16 -18 16 -19 -4 -19 -16 0 -24 12 -38
53 -9 28 -19 57 -23 62 -8 14 -20 -58 -21 -130 -1 -47 -3 -55 -10 -37 -8 19
-13 21 -29 12 -11 -5 -23 -15 -26 -20 -3 -6 -16 -10 -28 -10 -21 1 -22 1 -2
12 11 6 24 15 30 20 5 5 18 14 29 22 10 7 17 21 14 32 -3 17 -6 17 -28 -8 -25
-30 -67 -37 -76 -14 -3 8 -11 13 -17 11 -7 -3 -23 4 -37 15 l-25 20 50 -7 c28
-3 52 -10 53 -15 6 -13 28 -9 42 6 9 12 5 17 -29 26 -23 6 -41 14 -41 18 0 4
-7 16 -15 26 -13 18 -16 18 -40 2 -34 -22 -32 -3 2 24 22 17 24 23 13 30 -11
7 -8 11 13 19 16 6 32 11 37 11 5 0 14 8 19 19 9 17 5 19 -53 25 -35 3 -71 4
-80 0 -9 -3 -16 -2 -16 4 0 16 54 24 84 12 40 -15 47 -13 100 21 48 30 48 30
27 45 -20 14 -25 14 -64 -5 -72 -35 -158 -33 -202 5 l-30 25 37 -5 c21 -2 38
-3 38 0 0 3 -9 23 -20 44 -11 22 -16 40 -11 40 5 0 12 -6 14 -12 4 -8 6 -7 6
3 1 9 7 22 15 28 11 10 16 8 21 -8 7 -23 43 -29 62 -10 15 15 55 -11 47 -31
-12 -30 -16 -80 -8 -80 5 0 20 7 33 16 20 14 28 15 62 4 30 -10 42 -11 51 -2
13 13 8 15 -52 30 -26 6 -41 18 -57 47 -17 30 -31 42 -65 52 -24 7 -47 11 -53
10 -5 -2 -18 5 -28 15 -18 19 -18 19 0 17 10 -2 24 0 31 5 9 5 18 1 27 -12 8
-10 28 -22 44 -25 18 -4 36 -17 47 -36 22 -37 62 -57 129 -65 l50 -7 -30 23
c-39 30 -78 70 -90 92 -11 19 -48 24 -79 11 -14 -6 -17 -4 -14 11 3 15 11 19
42 17 22 -2 50 -10 62 -18 31 -20 70 -19 124 6 44 20 100 65 100 81 0 4 -11 8
-24 8 -14 0 -28 5 -32 11 -4 8 3 9 24 4 20 -4 41 -1 62 10 41 21 35 26 -15 15
-22 -5 -57 -12 -78 -15 -29 -5 -41 -13 -49 -33 -14 -32 -38 -62 -49 -62 -5 0
1 16 13 36 15 26 18 38 9 43 -13 8 28 31 57 31 13 1 10 7 -12 27 l-30 25 -20
-24 c-12 -14 -28 -39 -37 -55 -20 -37 -74 -50 -101 -25 -25 21 -23 29 17 69
26 26 39 33 47 25 17 -17 1 -60 -24 -64 -30 -4 -36 -28 -6 -28 32 0 49 15 81
71 23 40 24 48 11 53 -27 11 -100 6 -116 -6 -23 -19 -58 -74 -58 -91 0 -13
-18 -23 -73 -41 -23 -7 -77 4 -77 16 0 5 5 6 10 3 6 -4 17 -1 25 5 8 7 15 8
15 3 0 -13 42 -14 58 0 8 6 31 37 52 68 34 49 44 57 79 63 48 7 51 17 15 53
-22 22 -25 30 -17 57 7 26 17 34 63 49 62 21 93 44 86 64 -4 8 2 13 16 13 30
0 98 22 98 31 0 20 -49 20 -81 0 -19 -12 -50 -21 -70 -21 -61 0 -98 -11 -92
-26 3 -8 -2 -17 -11 -20 -23 -9 -31 2 -16 21 10 12 10 19 2 27 -7 7 -12 23
-12 37 l1 26 20 -24 c26 -32 102 -40 147 -17 37 19 40 31 11 46 -11 7 -18 14
-16 17 3 2 15 -1 27 -7 12 -7 20 -8 16 -2 -3 5 -20 15 -37 22 -35 15 -51 3
-42 -31 3 -10 0 -19 -6 -19 -6 0 -11 16 -11 35 0 40 3 39 -87 23 l-68 -11 0
-71 c0 -41 6 -81 14 -95 8 -15 11 -41 8 -68 -2 -24 0 -46 5 -49 6 -4 6 -10 1
-15 -6 -6 -22 -3 -41 7 -39 19 -60 10 -37 -16 16 -18 16 -41 -1 -101 -5 -16
-75 -30 -150 -29 -28 0 -35 -6 -69 -64 -47 -81 -109 -152 -204 -233 -67 -57
-78 -63 -105 -57 -17 3 -32 7 -34 9 -1 1 48 53 110 116 190 193 245 321 204
474 -7 28 -21 65 -31 84 l-18 35 27 23 c15 13 31 23 35 23 10 0 71 -131 71
-153 0 -9 -3 -17 -7 -17 -5 0 -7 -35 -5 -78 3 -72 1 -80 -22 -105 -14 -16 -26
-30 -26 -32 0 -2 18 -6 40 -10 48 -8 100 2 100 20 0 18 27 38 34 26 4 -5 2
-12 -4 -16 -16 -10 -12 -25 8 -25 28 0 42 21 42 61 0 46 -17 59 -40 32 -9 -12
-40 -33 -69 -48 -53 -26 -75 -29 -46 -5 9 7 15 29 15 54 1 33 3 38 11 23 7
-11 17 -16 29 -12 12 4 22 0 28 -11 9 -16 11 -15 21 5 16 29 8 38 -40 51 -32
9 -38 14 -30 24 6 8 9 21 5 30 -3 9 -1 16 5 16 6 0 11 -5 11 -11 0 -6 9 -8 21
-4 18 6 20 4 14 -14 -8 -27 40 -54 56 -30 12 19 11 39 -1 39 -26 0 -6 20 25
26 42 7 51 2 37 -22 -6 -11 -11 -13 -16 -5 -12 19 -22 12 -24 -19 -2 -26 1
-30 22 -30 41 0 49 54 15 102 -19 27 -20 34 -10 70 10 30 10 43 0 54 -21 26
-46 15 -73 -30 -15 -25 -30 -47 -35 -50 -14 -9 14 61 32 82 21 23 21 29 -1 35
-13 4 -11 5 6 6 12 0 31 -4 42 -11 10 -7 23 -9 27 -4 12 12 -43 54 -87 66 -44
12 -62 30 -31 30 12 0 21 5 21 10 0 18 20 11 20 -7 1 -16 2 -16 13 -3 11 14
59 40 74 40 3 0 0 -7 -7 -15 -7 -8 -21 -15 -31 -15 -40 0 -11 -49 41 -68 28
-10 122 16 117 32 -2 6 -23 17 -46 25 -32 10 -46 22 -59 47 -10 23 -26 37 -46
43 l-31 9 30 1 c38 1 48 -6 64 -46 9 -23 22 -34 44 -39 18 -4 43 -15 57 -26
25 -20 85 -48 101 -48 13 0 11 34 -2 64 -9 18 -26 30 -62 40 -28 8 -54 13 -58
10 -5 -2 -13 5 -19 16 -10 18 -7 25 15 46 24 22 29 23 53 12 15 -7 38 -34 52
-60 14 -26 29 -50 33 -54 9 -10 39 17 33 31 -2 6 4 17 14 23 34 21 34 -17 0
-48 -37 -34 -39 -72 -6 -105 20 -20 81 -45 111 -45 6 0 18 28 27 62 18 67 14
78 -29 78 -16 0 -21 4 -17 15 8 21 24 18 57 -9 l28 -23 -20 -54 c-11 -30 -15
-45 -8 -35 43 68 118 92 253 82 l92 -7 -5 63 c-7 80 -16 92 -11 15 2 -39 -1
-57 -9 -57 -6 0 -20 -3 -30 -6 -14 -6 -13 -2 6 16 29 28 24 74 -12 122 -34 46
-60 99 -51 106 4 4 9 2 11 -4 2 -6 10 -20 18 -30 14 -18 14 -17 5 9 -5 15 -6
27 -1 27 5 0 11 -10 14 -22 4 -13 13 -32 20 -43 14 -19 16 -19 56 8 41 27 53
41 27 31 -8 -3 -27 2 -43 11 l-28 16 35 -6 c19 -4 42 -8 50 -11 9 -2 33 14 55
37 31 32 35 40 19 35 -12 -4 -43 -2 -69 4 -98 22 -176 -9 -229 -90 -16 -25
-43 -54 -59 -65 -26 -17 -31 -27 -33 -69 -2 -27 -8 -54 -15 -60 -8 -8 -9 -3
-5 20 5 24 3 33 -9 38 -15 5 -15 7 -1 22 9 8 16 24 16 35 0 12 9 21 25 25 27
7 75 57 75 78 0 7 -27 25 -60 40 -56 25 -61 26 -89 12 -32 -17 -91 -87 -96
-114 -1 -9 4 -25 13 -35 29 -32 3 -30 -28 3 -25 27 -39 33 -73 34 -23 0 -54
-3 -69 -7 -16 -4 -28 -3 -28 2 0 5 11 12 25 15 13 3 34 16 45 28 20 22 20 22
20 1 0 -15 8 -22 28 -26 30 -7 65 14 91 53 l16 23 -37 -6 c-51 -8 -78 1 -78
27 -1 19 -2 19 -13 5 -7 -9 -33 -18 -61 -21 l-49 -6 28 22 c19 15 26 28 22 39
-8 22 -38 22 -44 0 -6 -21 -89 -92 -171 -146 -53 -35 -58 -36 -71 -20 -33 43
-74 149 -93 240 -17 84 -19 121 -15 258 8 217 45 365 117 455 34 42 138 126
146 117 12 -12 -20 -82 -56 -121 -81 -89 -127 -232 -137 -431 -6 -131 4 -226
39 -342 24 -82 31 -86 93 -48 22 14 51 25 65 25 32 0 69 38 49 51 -8 5 -17 9
-21 9 -5 0 -8 4 -8 10 0 5 18 3 41 -6 28 -12 43 -14 51 -6 16 16 1 30 -36 38
-52 9 -79 -3 -73 -32 5 -30 -6 -38 -34 -24 -15 9 -24 9 -32 1 -6 -6 -16 -11
-21 -11 -6 0 -5 5 1 11 6 6 9 18 5 27 -4 12 -1 14 14 8 49 -20 56 -20 52 5 -1
13 -14 29 -28 36 -30 15 -50 41 -50 65 0 15 4 16 26 8 38 -15 54 -12 54 10 0
11 6 20 13 19 19 -1 54 -18 38 -18 -8 -1 -11 -7 -7 -16 4 -10 -2 -19 -17 -25
-16 -6 -17 -9 -5 -9 29 -1 48 10 48 29 0 20 46 80 61 80 5 0 9 -14 9 -31 0
-35 52 -109 76 -109 13 0 71 25 83 36 2 2 -3 14 -12 28 -14 21 -22 23 -57 19
-40 -6 -56 9 -24 21 10 4 13 13 9 26 -10 31 0 25 63 -40 50 -51 64 -60 94 -60
50 0 52 9 10 47 -42 38 -91 67 -99 59 -15 -15 -43 17 -43 48 l0 34 38 -9 c60
-14 84 -12 80 9 -2 10 -13 17 -28 17 -22 0 -25 5 -25 37 -1 19 -7 44 -15 53
-14 16 -13 17 10 10 73 -23 81 -30 59 -52 -6 -6 -8 -21 -4 -33 5 -17 12 -20
32 -15 15 3 31 1 40 -7 14 -11 15 -10 9 8 -4 15 -2 21 9 21 10 0 15 -10 15
-27 0 -15 3 -30 6 -33 8 -8 42 9 71 36 19 17 23 18 23 5 0 -9 -3 -24 -6 -33
-5 -13 -8 -14 -15 -3 -13 21 -51 -24 -71 -85 -20 -61 -14 -70 52 -81 22 -3 65
-17 95 -31 30 -13 55 -22 55 -20 0 8 -71 44 -101 50 -66 14 -88 63 -53 114 15
21 23 23 70 19 46 -4 54 -2 54 12 0 51 -90 106 -186 114 -32 2 -63 5 -67 5 -4
1 -2 7 5 15 7 7 19 11 25 9 8 -3 13 2 13 12 0 11 -5 15 -15 11 -8 -3 -34 6
-57 20 -25 15 -34 24 -21 21 13 -3 26 -1 29 4 3 5 23 9 45 9 21 0 39 5 39 10
0 6 7 10 15 10 11 0 14 -7 10 -23 -4 -15 0 -28 10 -37 10 -8 21 -24 26 -36 4
-13 27 -31 52 -42 25 -11 54 -29 65 -40 19 -19 20 -19 31 20 16 51 26 43 12
-9 -15 -51 -14 -88 2 -102 17 -13 157 -27 157 -15 -1 18 -50 65 -61 58 -7 -4
-10 -1 -7 7 3 8 -2 20 -11 26 -13 11 -14 14 -2 22 7 5 10 14 7 20 -13 20 9 11
32 -13 20 -21 20 -25 6 -28 -31 -6 63 -96 124 -118 28 -11 52 -17 52 -12 0 10
-126 211 -146 233 -9 10 -29 20 -45 23 -16 3 -43 9 -61 12 l-32 6 18 -27 c10
-15 16 -28 14 -30 -7 -7 -49 35 -44 44 3 5 -4 11 -17 15 -34 9 -67 7 -67 -4 0
-5 8 -10 17 -10 13 0 14 -3 5 -12 -8 -8 -8 -17 -1 -30 6 -11 8 -23 4 -26 -3
-3 -8 3 -11 15 -4 12 -12 19 -19 17 -9 -4 -11 2 -8 20 5 26 -10 36 -22 16 -11
-18 -26 -11 -17 8 5 9 7 23 4 30 -3 11 0 12 16 3 11 -6 29 -11 39 -10 16 0 16
1 -2 8 -34 14 117 0 163 -15 79 -26 98 -18 77 32 -13 31 -12 35 7 49 12 8 20
16 17 18 -67 52 -86 60 -75 32 6 -16 -12 -65 -25 -65 -4 0 -3 16 1 34 9 40 3
51 -18 33 -12 -9 -16 -9 -19 1 -6 15 -25 16 -41 0 -8 -8 -8 -15 -1 -24 6 -7 6
-14 1 -18 -12 -7 -78 19 -87 34 -3 5 -16 10 -28 10 -22 1 -22 1 2 21 14 11 34
19 45 17 12 -1 31 4 43 10 21 11 23 10 23 -8 0 -16 5 -21 23 -18 16 2 21 9 19
26 -3 17 2 22 18 22 11 0 23 7 26 15 8 21 21 19 27 -5 3 -13 10 -18 21 -14 9
3 16 1 16 -5 0 -6 -4 -11 -8 -11 -4 0 -8 -10 -9 -21 -2 -21 1 -22 64 -16 85 8
93 17 59 61 -19 26 -41 40 -84 52 -31 10 -64 24 -74 32 -14 11 -23 11 -64 -3
-27 -9 -54 -21 -61 -27 -18 -15 -17 11 3 50 17 35 56 51 78 32 11 -8 20 -9 36
0 20 11 20 13 5 36 -8 13 -11 24 -5 24 5 0 17 -11 26 -25 10 -15 26 -25 40
-25 29 0 32 26 4 33 -11 3 -20 10 -20 16 0 8 10 6 30 -4 17 -9 30 -22 30 -30
0 -17 26 -20 35 -5 8 12 25 13 25 1 0 -14 -54 -29 -82 -24 -24 5 -26 3 -19
-28 5 -25 15 -36 39 -46 32 -13 32 -13 27 10 -4 16 0 28 11 38 16 13 17 12 10
-14 -4 -19 0 -40 15 -68 11 -23 23 -39 25 -36 3 3 -2 19 -11 37 -9 18 -14 34
-11 37 3 3 14 -15 25 -41 24 -54 46 -63 36 -13 -4 17 -16 44 -27 59 l-19 28
30 18 c25 15 28 21 18 32 -6 7 -1 6 13 -3 13 -10 30 -17 37 -17 7 0 22 -9 33
-20 20 -20 20 -20 1 -20 -11 0 -23 -4 -26 -10 -9 -15 -25 -12 -19 3 3 8 -6 18
-21 25 -21 10 -27 9 -31 -3 -4 -8 0 -22 7 -31 11 -14 17 -40 22 -98 4 -40 52
-61 152 -64 l94 -4 26 54 c21 42 22 48 6 28 -24 -29 -27 -17 -6 20 20 36 20
37 -26 61 -54 27 -89 15 -89 -30 0 -33 -25 -87 -34 -73 -10 16 -46 1 -46 -19
0 -11 -4 -19 -10 -19 -5 0 -10 7 -10 15 0 7 -8 18 -17 24 -16 8 -13 14 21 47
l39 38 18 -23 c11 -13 19 -18 19 -13 0 6 -5 14 -11 18 -7 4 -8 9 0 17 7 7 5
14 -6 22 -14 10 -11 13 20 19 21 4 37 10 37 14 0 5 -15 22 -33 40 -23 22 -42
31 -62 31 -17 -1 -77 17 -134 39 -189 75 -381 109 -570 100 -169 -8 -214 -37
-280 -178 -34 -74 -75 -210 -93 -308 -14 -80 -21 -92 -60 -92 -33 0 -33 -3 3
160 60 265 136 402 255 461 47 23 58 24 234 24 132 -1 209 -6 271 -18 125 -25
299 -82 339 -112 35 -26 53 -18 28 12 -11 14 -11 16 2 11 8 -2 21 -18 29 -34
8 -16 20 -33 28 -37 7 -4 13 -13 13 -20 1 -17 30 -50 63 -72 l28 -18 -6 29
c-12 54 -14 56 -40 51 -14 -2 -28 0 -31 4 -3 5 4 9 15 9 26 0 27 19 4 59 -16
28 -16 33 -3 41 8 5 23 10 32 10 22 0 35 -45 18 -65 -12 -14 -5 -55 9 -55 5 0
11 -18 15 -40 4 -27 14 -45 31 -56 36 -24 42 -11 22 47 -10 27 -15 55 -11 61
5 8 9 7 13 -4 5 -15 8 -15 26 -2 12 9 16 18 10 22 -13 9 -38 53 -33 58 2 2 19
-10 36 -26 19 -17 39 -27 47 -24 12 5 15 -5 15 -50 0 -31 4 -56 8 -56 19 0 52
43 58 75 8 45 -10 69 -47 61 -33 -6 -42 11 -33 62 l7 36 23 -30 c13 -16 24
-35 24 -41 0 -7 7 -13 16 -13 11 0 14 6 9 23 -5 19 -4 20 5 5 13 -22 32 -24
24 -3 -4 8 -1 15 5 15 6 0 11 -4 11 -10 0 -15 26 -12 40 5 18 22 22 13 9 -22
-7 -21 -15 -30 -27 -27 -26 6 -39 -7 -47 -49 -6 -33 -5 -37 13 -37 12 0 33 11
48 25 15 14 39 25 53 25 25 0 24 -1 -9 -18 -19 -9 -35 -24 -35 -32 0 -20 39
-25 57 -6 9 8 20 11 28 6 10 -6 8 -11 -8 -19 -27 -14 -75 -14 -89 0 -20 20
-77 -8 -158 -77 -133 -114 -122 -159 49 -190 l39 -7 -7 34 c-9 47 -31 76 -74
98 -23 13 -30 20 -19 21 36 0 73 -29 101 -80 32 -59 48 -62 18 -3 -22 42 -42
62 -87 87 l-30 16 30 -7 c17 -3 45 -12 63 -20 27 -11 37 -11 68 2 27 11 35 20
32 33 -3 11 2 23 13 30 15 10 17 8 16 -16 -2 -32 27 -41 58 -17 20 15 20 15
-7 36 -37 28 -36 41 2 23 39 -20 41 -59 5 -76 -27 -12 -31 -23 -15 -33 6 -3 8
-16 4 -29 -4 -17 1 -25 18 -34 23 -11 23 -11 1 -11 -12 -1 -29 6 -37 15 -9 8
-20 13 -25 10 -5 -3 -20 3 -32 14 -13 11 -19 19 -12 20 6 0 19 3 27 6 12 5 15
2 10 -10 -3 -9 -1 -16 5 -16 15 0 14 43 -1 58 -8 8 -17 7 -37 -7 -14 -10 -36
-21 -48 -25 l-22 -7 23 -61 c27 -70 52 -101 109 -130 38 -19 57 -20 102 -3 20
7 20 6 1 -9 -11 -9 -16 -16 -11 -16 5 0 29 19 52 42 41 41 55 79 33 93 -6 4
-7 -1 -4 -12 8 -25 -28 19 -63 77 -38 62 -37 142 2 229 30 65 35 70 55 46 10
-12 10 -24 1 -54 -14 -49 -14 -113 1 -163 12 -41 57 -98 77 -98 20 0 63 79 68
124 7 58 -18 111 -98 206 -57 67 -59 73 -42 86 24 18 26 18 55 -13 92 -100
174 -247 164 -296 -7 -34 -59 -119 -90 -148 -20 -19 -20 -19 0 -46 11 -15 40
-37 64 -50 l43 -23 48 26 c61 34 81 55 118 129 22 44 27 61 18 67 -18 11 -67
10 -67 -2 0 -6 -11 -15 -25 -20 -14 -5 -25 -14 -25 -19 0 -5 -11 -11 -25 -13
-14 -3 -25 -1 -25 3 0 5 4 9 9 9 15 0 22 33 9 42 -10 6 -8 8 5 8 23 0 22 27
-2 35 -47 15 -48 65 -1 80 23 7 27 33 5 41 -17 7 -21 34 -5 34 6 0 10 -5 10
-11 0 -5 4 -8 9 -4 5 3 12 1 16 -5 3 -5 22 -10 42 -10 35 0 36 0 18 20 -10 11
-25 20 -34 20 -13 1 -13 2 2 11 14 8 23 4 46 -20 39 -42 62 -41 55 2 -9 51
-12 57 -33 57 -11 0 -27 10 -35 22 -20 28 -21 44 -3 29 8 -6 16 -9 18 -7 2 2
19 6 37 9 30 6 32 5 28 -19 -6 -32 14 -28 31 7 9 17 13 19 13 7 0 -11 5 -15
15 -12 11 5 12 10 4 26 -7 13 -7 24 -1 30 12 12 34 -46 25 -68 -8 -22 18 -36
37 -20 34 29 67 27 38 -2 -9 -9 -8 -16 5 -30 16 -17 16 -25 5 -73 l-13 -54 -3
41 c-2 32 -8 44 -26 52 -31 14 -46 -1 -46 -45 0 -25 10 -44 39 -76 21 -23 46
-55 55 -72 15 -26 16 -27 10 -5 -3 14 -10 29 -15 34 -17 18 -9 42 20 64 17 12
32 35 36 54 4 18 15 47 25 65 16 27 17 33 4 44 -20 16 -18 46 4 58 38 20 62
-28 32 -66 -11 -14 -17 -29 -14 -34 2 -4 -4 -17 -16 -29 -20 -20 -28 -60 -11
-60 15 0 68 49 54 50 -7 0 -13 5 -13 11 0 6 6 9 14 6 16 -6 37 14 59 59 9 17
24 35 34 38 16 6 16 6 1 -11 -16 -17 -15 -19 8 -30 13 -6 24 -7 24 -3 0 5 -6
10 -12 13 -31 11 199 89 361 122 194 39 405 41 492 4z m-1606 -29 c27 -30 12
-34 -15 -5 -13 14 -19 25 -13 25 5 0 18 -9 28 -20z m-1595 -177 c-26 -60 -50
-116 -53 -125 -5 -13 -17 -18 -47 -18 l-40 0 24 63 c34 91 73 164 93 176 10 6
30 11 44 11 l27 0 -48 -107z m3135 56 c14 -27 39 -84 55 -125 l28 -74 -37 0
c-31 0 -40 5 -51 28 -20 44 -90 211 -90 217 0 3 16 5 35 5 32 0 37 -4 60 -51z
m-2855 36 c0 -2 -20 -35 -44 -72 -24 -37 -69 -115 -100 -173 -31 -58 -66 -113
-77 -122 -22 -19 -59 -24 -59 -9 0 22 113 244 175 342 23 35 30 39 65 39 22 0
40 -2 40 -5z m2650 -80 c87 -145 157 -305 132 -305 -38 0 -64 29 -123 139 -34
64 -79 143 -101 177 -21 34 -38 64 -38 68 0 3 18 6 39 6 39 0 41 -1 91 -85z
m563 -13 c31 -25 73 -69 93 -99 90 -136 131 -525 79 -768 -17 -79 -60 -175
-79 -175 -14 0 -138 83 -203 137 -54 43 -61 89 -7 48 10 -8 31 -15 47 -15 15
0 52 -14 83 -31 35 -20 59 -28 65 -22 34 34 57 305 40 461 -21 196 -61 311
-135 390 -43 46 -66 87 -66 118 0 18 7 15 83 -44z m-2325 -92 c-11 -17 -10
-22 2 -30 8 -5 12 -11 10 -14 -3 -2 -14 2 -24 10 -19 13 -19 14 -1 34 23 26
29 26 13 0z m37 0 c-3 -5 -11 -10 -16 -10 -6 0 -7 5 -4 10 3 6 11 10 16 10 6
0 7 -4 4 -10z m-1819 -114 c-4 -23 -18 -43 -41 -61 -49 -37 -66 -75 -72 -164
-5 -76 -18 -101 -51 -101 -24 0 -10 168 19 226 20 43 135 152 146 140 3 -3 2
-21 -1 -40z m4391 -24 c47 -43 73 -104 83 -189 10 -92 4 -114 -27 -102 -19 7
-23 16 -23 48 0 86 -20 140 -71 197 -36 40 -49 62 -49 85 l0 30 28 -20 c15
-11 41 -33 59 -49z m-1000 44 c-9 -22 18 -40 40 -27 17 10 17 10 -2 11 -12 1
-15 4 -7 7 16 6 72 -16 72 -29 0 -6 -6 -8 -14 -5 -8 3 -22 -3 -32 -14 -15 -17
-69 -49 -82 -49 -2 0 -1 7 2 16 4 12 2 15 -9 11 -8 -4 -17 -2 -20 2 -2 5 5 12
18 15 21 6 21 7 4 20 -15 12 -15 14 -2 19 8 4 12 13 9 22 -4 10 0 15 11 15 11
0 15 -5 12 -14z m-2802 -23 c-11 -45 -21 -50 -115 -57 -50 -4 -98 -10 -107
-13 -14 -5 -15 -1 -9 28 3 18 11 38 17 44 9 9 89 20 183 23 37 2 38 1 31 -25z
m3342 5 c7 -6 13 -24 13 -40 l0 -30 -67 7 c-138 15 -145 17 -160 54 l-14 34
107 -7 c60 -4 114 -12 121 -18z m-2240 -33 c15 -13 22 -25 15 -25 -17 0 -62
30 -62 41 0 16 18 10 47 -16z m1508 -15 c-3 -5 -11 -10 -16 -10 -6 0 -7 5 -4
10 3 6 11 10 16 10 6 0 7 -4 4 -10z m-35 -77 c0 -32 -5 -28 -14 10 -4 19 -3
26 4 22 5 -3 10 -18 10 -32z m697 15 c4 -7 13 -35 18 -63 l10 -49 105 -18 c58
-9 124 -22 148 -29 39 -11 42 -14 42 -46 0 -32 -2 -35 -22 -29 -34 9 -193 35
-268 44 l-65 7 -12 65 c-7 36 -12 80 -13 98 0 27 3 32 24 32 14 0 28 -6 33
-12z m-3367 -25 c0 -50 -21 -157 -32 -164 -6 -4 -38 -10 -72 -13 -33 -4 -101
-16 -151 -27 -118 -25 -115 -26 -115 19 l0 39 133 23 c74 13 137 29 143 37 6
7 14 32 18 55 9 54 12 58 47 58 25 0 29 -4 29 -27z m4102 -150 c20 -21 44 -56
53 -78 24 -56 21 -162 -8 -275 -26 -100 -97 -300 -106 -300 -4 1 -16 9 -29 20
l-23 19 35 93 c52 141 77 243 83 346 l6 92 -42 40 c-31 29 -41 47 -41 70 0 26
3 29 18 21 9 -5 34 -27 54 -48z m-4822 16 c0 -32 -23 -66 -90 -137 -33 -35
-35 -36 -38 -15 -2 12 4 37 12 55 19 38 93 128 107 128 5 0 9 -14 9 -31z
m2818 -41 c-9 -13 -26 -24 -39 -26 -23 -3 -23 -2 6 22 37 32 52 33 33 4z
m1875 -73 c93 -47 97 -51 97 -82 0 -17 -4 -34 -9 -37 -4 -3 -44 15 -87 39 -43
25 -87 48 -96 51 -13 4 -18 16 -18 45 0 22 3 38 8 36 4 -2 51 -25 105 -52z
m-4513 13 c0 -31 -6 -36 -89 -81 -206 -113 -301 -230 -301 -369 0 -27 12 -96
26 -154 l27 -106 -21 -21 c-28 -28 -34 -20 -68 83 -22 68 -27 105 -28 185 -1
92 1 105 30 165 36 76 93 143 166 197 56 41 225 132 246 133 7 0 12 -13 12
-32z m14 -220 c5 -24 0 -31 -61 -73 -88 -61 -89 -62 -107 -26 l-16 30 82 56
c45 30 85 51 89 47 3 -4 9 -19 13 -34z m4457 1 c96 -62 99 -66 87 -100 -5 -16
-13 -29 -16 -29 -3 0 -39 21 -79 48 -69 45 -73 49 -73 85 0 20 4 37 8 37 5 0
38 -18 73 -41z m338 -88 c53 -116 57 -193 16 -351 -21 -82 -28 -90 -58 -62
l-23 22 19 73 c28 106 28 220 0 278 -13 25 -23 61 -23 80 0 73 23 59 69 -40z
m-5035 34 c4 -14 29 -74 56 -133 28 -60 50 -114 50 -119 0 -6 -11 -18 -25 -27
l-26 -17 -33 73 c-19 40 -44 103 -57 140 -23 65 -23 67 -5 87 25 27 32 26 40
-4z m994 -97 c-3 -7 -16 -19 -31 -26 -22 -11 -27 -21 -32 -70 -3 -31 -11 -66
-16 -77 -8 -18 -9 -17 -4 5 2 14 5 53 5 88 0 61 1 63 30 69 17 3 30 9 30 14 0
5 5 9 11 9 6 0 9 -6 7 -12z m-104 -53 c-19 -14 -74 -22 -60 -8 9 9 70 30 75
26 3 -2 -4 -10 -15 -18z m-559 -66 c9 -17 15 -32 13 -33 -213 -154 -376 -287
-473 -385 -33 -34 -63 -61 -67 -61 -4 0 -15 14 -24 31 l-16 31 44 45 c92 94
475 402 500 403 4 0 15 -14 23 -31z m737 1 c3 -16 1 -30 -4 -30 -4 0 -8 3 -8
8 0 4 -3 17 -6 30 -4 12 -2 22 4 22 5 0 12 -13 14 -30z m-1097 -10 c20 -40 20
-41 -21 -74 -41 -32 -54 -25 -54 31 0 23 8 37 28 52 15 11 28 21 29 21 1 0 9
-13 18 -30z m4691 -37 c121 -90 275 -217 358 -295 59 -55 68 -67 63 -88 -16
-59 -21 -58 -115 32 -96 90 -250 217 -369 302 -40 28 -72 56 -72 61 -1 14 28
55 38 55 5 0 49 -30 97 -67z m269 41 c18 -12 25 -25 25 -48 0 -53 -13 -61 -48
-31 -35 30 -36 33 -22 69 11 31 13 31 45 10z m-509 -89 c10 -8 14 -15 8 -15
-5 0 -19 7 -30 15 -10 8 -14 15 -8 15 5 0 19 -7 30 -15z m-4670 -68 c9 -28 7
-40 -18 -92 -38 -81 -37 -127 6 -221 35 -74 123 -217 178 -286 25 -32 27 -40
16 -57 -28 -45 -45 -32 -134 104 -155 233 -188 369 -123 505 48 101 55 105 75
47z m5433 -57 c21 -45 26 -70 26 -135 0 -73 -3 -87 -42 -167 -44 -91 -96 -174
-172 -271 l-45 -58 -24 25 -25 24 45 59 c122 159 208 319 208 385 0 23 -12 63
-31 99 -29 58 -32 98 -11 133 8 13 41 -31 71 -94z m-250 -224 l22 -24 -42 -70
c-23 -38 -57 -89 -75 -112 l-33 -42 -20 33 c-19 32 -20 34 -3 59 10 14 40 60
67 102 28 43 53 78 56 78 3 0 16 -11 28 -24z m-4914 -79 c33 -51 61 -99 62
-107 3 -16 -32 -68 -40 -60 -19 20 -137 203 -137 212 0 15 30 48 44 47 6 0 38
-42 71 -92z m4502 4 c-8 -31 20 -34 32 -3 l9 27 1 -26 c1 -14 8 -34 16 -45 26
-35 16 -44 -21 -19 -19 13 -44 27 -55 30 -20 7 -27 25 -9 25 6 0 10 7 10 15 0
8 5 15 11 15 6 0 9 -9 6 -19z m-204 -90 c-13 -9 -15 -41 -3 -41 6 0 8 5 5 10
-3 6 -4 10 -1 10 2 0 12 3 20 6 12 4 15 2 10 -9 -3 -8 -1 -18 5 -22 6 -3 11
-16 11 -28 l0 -21 -15 21 c-8 12 -25 23 -38 25 -16 2 -22 10 -23 28 -2 33 3
40 22 33 9 -3 12 -9 7 -12z m-4630 -36 c10 -20 15 -46 11 -59 -6 -26 27 -100
79 -175 l29 -43 -25 -26 -25 -25 -41 63 c-72 111 -95 198 -70 269 14 40 21 39
42 -4z m5526 4 c21 -61 13 -112 -29 -195 -22 -44 -50 -92 -64 -109 l-24 -30
-25 23 -25 24 43 61 c60 87 75 120 75 166 0 41 17 91 31 91 4 0 12 -14 18 -31z
m-3202 -35 c24 -19 50 -49 58 -64 17 -33 20 -110 5 -110 -5 0 -10 8 -10 17 0
9 -12 29 -27 45 -33 34 -22 50 12 18 35 -33 31 -8 -6 34 -35 40 -120 76 -179
76 -45 0 -54 16 -12 23 61 11 114 -2 159 -39z m198 -170 c8 -18 15 -56 15 -86
0 -44 -6 -62 -35 -105 -45 -68 -108 -130 -113 -114 -2 7 16 51 41 99 24 48 47
105 51 127 6 37 4 36 -25 -25 -17 -36 -35 -76 -40 -89 -5 -13 -12 -21 -15 -18
-3 3 7 40 22 83 34 99 35 146 6 202 -12 23 -22 46 -22 49 0 15 100 -93 115
-123z m-213 69 c52 -51 48 -62 -7 -17 -41 33 -56 54 -38 54 4 0 24 -17 45 -37z
m885 4 c-15 -12 -39 -35 -52 -52 -20 -24 -24 -26 -25 -11 0 23 62 86 87 86 15
0 13 -4 -10 -23z m-88 -99 c0 -50 -3 -67 -9 -53 -15 34 -10 125 6 125 2 0 4
-33 3 -72z m-713 -44 c8 -20 13 -38 10 -41 -5 -6 -36 51 -36 67 0 20 11 9 26
-26z m1984 -34 c12 -8 11 -10 -7 -10 -13 0 -23 5 -23 10 0 13 11 13 30 0z
m-3891 -40 c165 -47 194 -231 64 -401 -20 -27 -38 -47 -40 -45 -2 2 10 58 27
124 34 138 36 161 14 203 -23 45 -74 63 -133 48 -42 -10 -51 -10 -75 6 l-28
19 24 18 c43 33 94 43 147 28z m4621 -10 c53 -27 56 -37 19 -59 -29 -18 -35
-18 -60 -5 -39 20 -71 18 -110 -9 -52 -35 -57 -74 -29 -204 12 -60 25 -119 28
-132 15 -70 -79 68 -103 153 -32 109 3 201 94 248 63 33 107 35 161 8z m-4886
-60 c78 -30 172 -94 191 -130 9 -18 14 -34 12 -36 -2 -3 -62 20 -132 51 -69
30 -141 55 -159 55 -62 0 -116 -65 -116 -138 0 -22 -12 -66 -27 -98 l-27 -59
-12 30 c-7 17 -13 62 -14 101 0 89 34 163 98 211 53 40 104 43 186 13z m5229
-13 c52 -40 89 -123 90 -200 0 -34 -6 -82 -13 -107 l-13 -45 -19 45 c-11 25
-24 74 -30 110 -17 108 -50 150 -119 150 -36 0 -203 -63 -266 -100 -38 -22
-42 -12 -14 34 29 47 101 94 200 132 57 22 142 13 184 -19z m-1426 -51 c-4
-10 -1 -13 9 -9 7 3 14 2 14 -1 0 -9 -81 -58 -87 -53 -4 5 55 77 64 77 3 0 3
-7 0 -14z m-2547 -21 c23 -24 35 -55 23 -55 -9 0 -63 62 -63 72 0 15 16 8 40
-17z m-1220 -87 c0 -4 -27 -40 -59 -79 -81 -95 -94 -127 -89 -205 3 -51 10
-72 35 -108 26 -37 31 -51 26 -81 -3 -19 -9 -35 -13 -35 -4 0 -33 27 -64 60
-124 135 -112 260 42 431 l53 58 34 -16 c19 -9 35 -20 35 -25z m5094 -28 c86
-102 111 -153 110 -230 0 -79 -26 -138 -89 -206 -47 -50 -60 -51 -70 -4 -5 23
0 37 21 65 39 51 56 125 43 185 -8 36 -27 68 -80 131 -38 46 -69 88 -69 92 0
9 61 37 72 34 4 -1 32 -31 62 -67z m-2636 13 c4 -48 -17 -96 -52 -118 -12 -8
-64 -33 -115 -55 -51 -21 -113 -54 -139 -73 -75 -53 -80 -55 -61 -27 9 14 53
51 99 83 102 70 129 94 188 175 54 73 76 77 80 15z m-219 -56 c-46 -37 -81
-59 -85 -54 -3 3 13 19 37 36 23 17 44 29 47 26 3 -3 3 -6 1 -8z m-2183 -43
c24 -58 18 -193 -17 -334 -42 -176 -47 -268 -19 -344 13 -33 41 -79 62 -102
34 -36 66 -110 54 -122 -2 -1 -23 12 -47 30 -145 111 -179 267 -119 548 31
145 37 239 20 285 -8 22 -6 32 12 55 27 32 35 30 54 -16z m4899 20 c15 -23 15
-32 5 -70 -15 -54 -10 -105 31 -289 55 -249 32 -384 -87 -502 -34 -35 -67 -63
-73 -63 -22 0 3 66 42 110 67 76 82 120 81 235 0 72 -8 131 -27 211 -47 196
-51 281 -18 367 13 34 24 34 46 1z m-4589 -136 c-8 -109 -68 -358 -85 -358
-20 0 -71 43 -71 59 0 59 129 381 153 381 6 0 8 -30 3 -82z m4289 -29 c15 -28
44 -103 65 -167 43 -128 43 -126 -23 -151 -23 -9 -27 -7 -36 22 -32 101 -64
253 -68 327 l-5 85 21 -32 c11 -18 32 -56 46 -84z m-2392 -72 c-16 -17 -55
-66 -85 -107 -66 -89 -87 -109 -153 -144 -40 -22 -44 -26 -20 -21 29 5 29 5
10 -11 -20 -16 -19 -16 5 -9 20 6 23 5 13 -6 -7 -7 -13 -23 -13 -34 0 -32 -39
-62 -111 -86 -35 -12 -75 -28 -89 -35 -24 -14 -24 -15 15 -9 117 17 167 46
211 121 7 10 14 16 18 13 3 -3 -7 -26 -24 -51 -32 -48 -60 -64 -173 -98 -51
-16 -86 -36 -145 -84 -171 -138 -199 -150 -392 -172 -74 -8 -142 -16 -150 -18
-8 -3 -26 -8 -39 -11 -15 -5 -21 -3 -17 3 9 15 136 42 198 42 118 1 255 48
310 108 16 17 8 13 -25 -11 -61 -47 -114 -62 -284 -82 -164 -20 -216 -38 -306
-106 -84 -63 -133 -121 -172 -202 -31 -62 -31 -62 -70 -59 -22 2 -44 7 -49 12
-13 13 22 105 65 170 48 71 126 136 229 189 91 47 125 57 271 76 194 26 227
40 384 170 44 37 112 85 150 108 140 82 272 185 320 250 42 57 134 140 144
131 3 -2 -9 -19 -26 -37z m-1345 5 c5 -15 -14 -16 -23 -2 -9 15 -36 12 -57 -7
-14 -12 -21 -14 -30 -5 -11 11 -4 15 52 34 19 6 53 -5 58 -20z m-663 -304 c97
-51 202 -113 233 -138 66 -53 128 -137 143 -194 12 -44 9 -170 -5 -183 -15
-15 -44 37 -66 119 -44 166 -92 214 -332 331 l-167 82 0 38 c-1 20 3 37 8 37
5 0 89 -42 186 -92z m4643 51 l3 -35 -108 -49 c-171 -78 -234 -115 -295 -175
-49 -49 -59 -67 -78 -131 -32 -111 -50 -156 -65 -169 -21 -17 -35 25 -35 103
0 87 33 153 118 236 57 55 98 82 253 163 101 54 189 96 194 95 6 -2 11 -19 13
-38z m-2796 -6 c-6 -10 -23 -29 -38 -43 -24 -22 -24 -20 7 21 34 46 50 58 31
22z m-1847 -163 c1 0 5 -42 9 -92 13 -176 46 -278 122 -385 68 -95 166 -163
286 -198 77 -22 262 -22 347 0 35 9 65 14 68 11 2 -2 -7 -29 -22 -60 -32 -67
-45 -71 -210 -70 -414 3 -685 280 -685 699 0 61 3 114 6 118 4 3 22 0 41 -8
20 -8 36 -15 38 -15z m4538 -103 c-5 -379 -230 -636 -602 -688 -81 -12 -221
-5 -252 12 -15 8 -69 96 -69 112 0 3 25 -2 56 -9 238 -55 462 2 605 153 106
112 154 236 166 420 l6 101 36 15 c22 8 40 10 46 5 6 -5 9 -57 8 -121z m-2374
-192 c0 -22 -5 -50 -12 -63 l-13 -23 -23 25 -22 24 28 50 c31 55 43 52 42 -13z
m356 -212 c15 -35 21 -153 9 -153 -4 0 -26 16 -50 35 l-43 35 14 38 c38 106
43 109 70 45z m-516 -43 c-2 -28 1 -36 32 -83 17 -26 83 -90 147 -144 64 -54
136 -115 160 -136 l42 -38 -42 -19 c-51 -22 -52 -22 -168 70 -96 76 -205 187
-238 240 -31 52 -37 108 -18 155 l16 38 35 -33 c20 -19 35 -41 34 -50z m-688
-2 c-23 -36 -58 -98 -142 -253 -170 -314 -485 -427 -788 -283 -103 49 -217
168 -275 288 -25 51 -46 99 -46 106 0 7 20 1 54 -17 43 -24 61 -41 91 -94 72
-122 180 -208 296 -234 69 -16 228 -13 290 5 147 44 216 112 315 315 40 79 79
151 88 158 17 14 91 39 119 40 18 1 18 -1 -2 -31z m1912 0 c34 -17 45 -33 96
-141 91 -191 158 -269 279 -324 77 -36 241 -44 338 -18 116 31 233 124 300
238 23 39 44 60 88 84 54 31 57 31 50 10 -4 -12 -22 -53 -42 -92 -164 -329
-533 -450 -830 -273 -67 40 -149 118 -186 177 -30 47 -196 359 -196 367 0 10
64 -8 103 -28z m-1032 -141 c-20 -20 -20 -20 -56 7 -34 27 -35 29 -20 46 17
18 18 18 57 -7 39 -26 39 -26 19 -46z m-580 4 c4 -3 10 -25 14 -48 l7 -43 -59
0 c-81 0 -113 -22 -155 -107 -32 -66 -33 -71 -33 -193 1 -145 17 -200 89 -298
80 -109 187 -167 331 -182 76 -8 81 -10 112 -46 32 -39 32 -39 10 -47 -32 -12
-182 2 -252 24 -122 37 -244 131 -315 240 -63 98 -82 165 -87 316 -5 117 -3
138 17 198 34 103 100 178 171 195 35 9 139 3 150 -9z m1426 -14 c37 -20 64
-55 100 -134 23 -49 28 -75 31 -173 6 -170 -32 -299 -125 -419 -99 -126 -219
-193 -396 -221 -108 -17 -246 18 -317 80 l-35 30 33 29 34 29 34 -23 c62 -42
127 -58 224 -53 77 4 98 9 165 42 173 85 275 249 275 442 0 103 -27 196 -73
249 -32 37 -38 39 -100 43 l-67 4 0 44 c0 37 3 44 23 49 70 15 142 9 194 -18z
m-1066 -89 c7 -13 -8 -32 -69 -91 -164 -160 -287 -249 -397 -288 -66 -23 -75
-18 -75 43 0 31 4 37 30 46 72 25 242 152 385 285 l70 65 23 -21 c13 -12 28
-29 33 -39z m366 36 l33 -25 -20 -30 -21 -29 -35 26 c-34 26 -34 26 -17 55 10
16 19 29 22 29 2 0 19 -12 38 -26z m-1815 -78 c22 -5 30 -17 52 -83 14 -42 24
-78 22 -80 -5 -5 -81 8 -95 16 -13 8 -41 102 -41 138 0 15 5 20 18 18 9 -2 29
-6 44 -9z m3458 -6 c0 -38 -34 -140 -49 -144 -41 -11 -91 -16 -91 -9 1 4 11
39 24 77 15 45 30 72 42 77 29 11 74 10 74 -1z m-1860 -89 c31 -26 33 -30 17
-37 -11 -4 -33 0 -53 10 -30 14 -33 19 -24 36 14 26 19 25 60 -9z m-37 -73
c113 -59 155 -87 218 -146 110 -103 123 -155 60 -245 -28 -42 -130 -137 -181
-170 -24 -16 -27 -15 -55 8 l-30 25 45 37 c87 72 158 149 166 177 17 68 -72
143 -359 300 l-69 38 23 24 c12 13 27 24 32 24 5 0 73 -33 150 -72z m470 47
c17 -24 17 -24 -24 -51 -23 -14 -77 -42 -120 -61 l-77 -35 -36 28 c-36 29 -36
29 -14 38 13 6 70 31 128 57 58 26 110 48 115 48 6 0 18 -11 28 -24z m-700
-115 c11 -82 -28 -155 -123 -235 -41 -34 -149 -95 -168 -95 -11 0 -67 78 -61
84 2 3 31 18 63 35 82 44 132 86 162 137 23 39 98 113 115 114 4 0 9 -18 12
-40z m1025 -210 c68 -36 67 -33 13 -92 l-24 -27 -61 32 c-77 41 -169 126 -195
181 -21 43 -26 91 -14 135 6 22 14 16 112 -86 78 -81 123 -119 169 -143z
m-878 185 c17 -9 30 -19 30 -24 0 -5 -12 -35 -26 -67 -20 -43 -28 -81 -32
-140 -5 -99 13 -148 83 -223 79 -84 161 -110 241 -76 34 14 38 14 67 -7 l30
-21 -29 -24 c-96 -76 -258 -46 -374 71 -96 97 -131 228 -96 363 15 60 60 163
72 163 3 0 18 -7 34 -15z m514 -78 c44 -89 56 -169 37 -257 -16 -74 -25 -83
-63 -64 -23 12 -29 20 -24 37 27 99 12 192 -44 281 -17 26 -30 49 -28 51 14
11 65 34 73 31 6 -1 27 -37 49 -79z m-1293 15 c4 -4 10 -22 14 -39 6 -30 5
-33 -19 -33 -13 0 -37 5 -53 11 -38 14 -103 59 -103 72 0 11 150 2 161 -11z
m2157 6 c-10 -30 -160 -100 -176 -83 -2 2 0 21 5 42 8 36 11 38 53 44 83 11
122 10 118 -3z m-2479 -45 c16 -61 44 -99 91 -123 45 -23 141 -40 227 -40 l61
0 27 -46 c15 -25 24 -49 20 -52 -4 -4 -73 -7 -153 -6 -127 0 -154 3 -203 22
-92 37 -144 104 -173 225 -6 25 -3 29 36 47 24 11 46 20 49 20 4 0 12 -21 18
-47z m2714 26 c42 -14 41 -8 16 -100 -24 -92 -102 -159 -214 -184 -74 -17
-294 -19 -310 -4 -3 4 4 27 16 51 l22 45 106 6 c139 7 199 26 245 77 19 22 38
52 42 67 12 56 16 64 27 59 7 -2 29 -10 50 -17z m-1431 -37 c16 -14 16 -17 -7
-44 -31 -37 -31 -44 0 -91 l26 -37 -28 -25 c-37 -32 -45 -31 -74 7 -41 54 -48
71 -49 112 0 32 7 45 40 78 43 43 40 43 92 0z"/>
<path d="M3135 5710 c3 -5 10 -10 16 -10 5 0 9 5 9 10 0 6 -7 10 -16 10 -8 0
-12 -4 -9 -10z"/>
<path d="M2936 5701 c-4 -7 -5 -15 -2 -18 9 -9 19 4 14 18 -4 11 -6 11 -12 0z"/>
<path d="M3925 5700 c3 -5 8 -10 11 -10 2 0 4 5 4 10 0 6 -5 10 -11 10 -5 0
-7 -4 -4 -10z"/>
<path d="M4242 5699 c2 -6 8 -10 13 -10 5 0 11 4 13 10 2 6 -4 11 -13 11 -9 0
-15 -5 -13 -11z"/>
<path d="M4011 5677 c-20 -10 -23 -16 -18 -55 4 -38 37 -92 57 -92 9 0 12 78
5 122 -7 41 -9 42 -44 25z"/>
<path d="M4110 5642 c0 -12 8 -23 21 -27 31 -10 32 -1 4 25 -25 23 -25 23 -25
2z"/>
<path d="M2791 5637 c-6 -8 -8 -16 -5 -20 10 -9 34 4 34 19 0 18 -14 18 -29 1z"/>
<path d="M3640 5621 c0 -6 4 -13 10 -16 6 -3 7 1 4 9 -7 18 -14 21 -14 7z"/>
<path d="M3073 5605 c-13 -10 -18 -27 -18 -67 0 -29 -5 -62 -10 -73 -7 -15 1
-12 33 13 44 35 58 66 48 106 -7 30 -29 39 -53 21z"/>
<path d="M3471 5574 c0 -11 3 -14 6 -6 3 7 2 16 -1 19 -3 4 -6 -2 -5 -13z"/>
<path d="M3666 5577 c3 -10 9 -15 12 -12 3 3 0 11 -7 18 -10 9 -11 8 -5 -6z"/>
<path d="M3896 5566 c-22 -6 -56 -25 -75 -44 -35 -32 -35 -33 -17 -47 11 -8
25 -15 32 -15 18 0 37 28 30 45 -3 8 -1 15 4 15 5 0 12 -10 15 -22 10 -30 45
-68 64 -68 8 0 33 9 56 20 33 16 48 18 74 10 33 -9 33 -9 15 11 -25 27 -103
83 -134 95 -17 7 -38 7 -64 0z m84 -61 c20 -24 6 -28 -15 -5 -10 11 -13 20 -8
20 6 0 16 -7 23 -15z m-12 -31 c8 -9 9 -15 1 -20 -6 -3 -19 3 -30 14 -18 20
-18 21 -1 19 10 0 24 -7 30 -13z"/>
<path d="M4666 5572 c-9 -9 -7 -72 2 -72 15 0 54 48 48 58 -7 12 -43 22 -50
14z"/>
<path d="M2483 5555 c-3 -9 2 -22 13 -30 36 -27 54 -13 38 29 -8 20 -43 21
-51 1z"/>
<path d="M4760 5560 c-13 -8 -12 -11 5 -24 11 -9 25 -16 32 -16 21 0 26 23 8
37 -22 15 -25 16 -45 3z"/>
<path d="M2390 5540 c0 -22 12 -25 41 -10 28 16 23 30 -11 30 -23 0 -30 -4
-30 -20z"/>
<path d="M3492 5535 c0 -16 2 -22 5 -12 2 9 2 23 0 30 -3 6 -5 -1 -5 -18z"/>
<path d="M3461 5498 c-1 -31 3 -59 7 -62 5 -3 7 18 5 47 -6 75 -11 81 -12 15z"/>
<path d="M4451 5526 c-9 -10 -8 -16 4 -26 13 -11 19 -11 32 2 16 17 10 38 -11
38 -8 0 -19 -6 -25 -14z"/>
<path d="M3720 5482 c0 -29 -7 -66 -15 -82 -9 -17 -13 -30 -10 -30 2 0 14 18
25 40 22 42 26 86 10 110 -7 11 -10 0 -10 -38z"/>
<path d="M4213 5494 l-43 -25 20 -36 c10 -20 17 -40 14 -44 -3 -5 0 -18 6 -30
11 -19 18 -21 105 -17 119 4 148 21 153 90 3 43 1 47 -31 67 -42 26 -62 26
-86 2 -11 -11 -22 -16 -26 -13 -3 4 -3 -2 1 -12 5 -13 9 -14 15 -5 6 10 13 9
34 -5 14 -9 29 -24 32 -32 3 -8 12 -14 21 -14 13 0 11 -4 -6 -16 -12 -8 -20
-20 -17 -25 4 -5 1 -9 -4 -9 -6 0 -11 4 -11 10 0 16 -41 34 -50 20 -10 -17
-43 38 -37 62 5 18 -23 58 -40 58 -5 0 -27 -12 -50 -26z"/>
<path d="M3856 5445 c-3 -8 -3 -22 1 -30 5 -14 8 -14 24 1 20 18 26 40 9 29
-5 -3 -10 -1 -10 4 0 16 -17 13 -24 -4z"/>
<path d="M2810 5440 c-11 -7 -12 -12 -3 -21 13 -13 33 -4 33 17 0 16 -9 18
-30 4z"/>
<path d="M4350 5441 c0 -5 6 -14 14 -20 16 -13 32 2 21 19 -8 12 -35 13 -35 1z"/>
<path d="M3993 5412 c-11 -15 -23 -39 -27 -52 -7 -28 -8 -29 41 46 27 41 15
46 -14 6z"/>
<path d="M4052 5423 c-51 -25 -83 -106 -47 -119 8 -3 43 3 77 13 57 17 63 21
66 47 5 39 -16 76 -42 76 -12 0 -36 -8 -54 -17z m28 -73 c-27 -21 -40 -25 -40
-12 0 10 53 42 60 36 2 -3 -6 -14 -20 -24z"/>
<path d="M2466 5405 c-3 -8 -1 -15 4 -15 6 0 10 7 10 15 0 8 -2 15 -4 15 -2 0
-6 -7 -10 -15z"/>
<path d="M4740 5404 c0 -8 5 -12 10 -9 6 3 10 10 10 16 0 5 -4 9 -10 9 -5 0
-10 -7 -10 -16z"/>
<path d="M2320 5373 c1 -18 19 -35 29 -28 9 5 9 10 0 21 -12 15 -29 19 -29 7z"/>
<path d="M2655 5370 c-11 -5 -40 -9 -65 -10 l-45 -1 24 -19 c13 -11 30 -20 39
-20 32 0 142 22 142 29 0 6 -60 32 -71 30 -2 0 -13 -4 -24 -9z"/>
<path d="M3540 5376 c0 -2 8 -10 18 -17 15 -13 16 -12 3 4 -13 16 -21 21 -21
13z"/>
<path d="M3670 5340 c-6 -11 -8 -20 -6 -20 3 0 10 9 16 20 6 11 8 20 6 20 -3
0 -10 -9 -16 -20z"/>
<path d="M2688 5318 c-20 -5 -39 -17 -41 -26 -4 -15 -5 -15 -6 1 -1 20 -28 22
-66 5 -18 -8 -24 -17 -19 -27 3 -9 11 -37 18 -62 11 -43 67 -131 99 -158 12
-9 15 0 20 52 7 75 32 144 58 157 23 13 52 13 44 0 -3 -5 -15 -10 -26 -10 -13
0 -25 -12 -35 -35 -7 -19 -14 -37 -14 -40 0 -13 38 -3 102 27 58 26 72 29 93
20 16 -8 28 -23 31 -42 4 -16 8 -30 9 -30 2 0 18 14 36 31 36 34 61 33 110 -2
48 -34 113 -59 154 -59 30 0 36 -3 25 -10 -32 -21 -93 -2 -202 62 -31 19 -40
20 -64 10 l-27 -13 38 -39 c21 -21 64 -53 97 -70 66 -35 74 -54 9 -21 -48 25
-67 26 -75 6 -5 -13 -8 -13 -24 2 -21 20 -19 35 3 26 8 -3 15 0 15 5 0 17 -21
25 -33 13 -19 -19 -31 -12 -13 7 15 18 15 20 -4 37 -19 17 -20 17 -47 -6 -16
-13 -48 -33 -71 -43 -37 -17 -55 -35 -34 -36 4 0 20 -12 36 -26 23 -21 26 -28
15 -35 -21 -13 -27 -11 -31 13 -2 15 -13 24 -38 31 -42 11 -110 -7 -110 -28 0
-17 64 -91 91 -105 12 -7 33 -3 71 14 43 20 74 25 160 28 58 2 104 0 102 -4
-3 -5 -26 -8 -52 -9 -26 0 -56 -4 -67 -8 -16 -7 -14 -9 14 -14 51 -10 81 -8
81 5 0 7 12 -5 27 -26 l26 -40 22 50 c16 36 31 54 52 63 37 15 113 86 113 106
0 8 -5 17 -10 20 -6 4 -8 10 -5 15 9 15 -51 74 -102 102 -65 36 -249 88 -309
88 -35 0 -45 3 -34 10 11 7 -4 10 -48 10 -40 0 -61 4 -57 10 8 13 -57 11 -107
-2z m-87 -64 c-7 -24 -10 -26 -16 -11 -4 10 -2 24 5 32 18 21 21 14 11 -21z
m597 -197 c-17 -6 -26 -3 -35 9 -21 29 -15 33 22 16 34 -16 34 -17 13 -25z"/>
<path d="M3028 5298 c8 -8 118 -44 197 -64 20 -5 20 -5 1 7 -26 16 -210 69
-198 57z"/>
<path d="M4090 5280 c-41 -16 -70 -29 -63 -29 16 -1 125 39 138 50 12 12 11
12 -75 -21z"/>
<path d="M3991 5256 c-16 -19 -11 -29 8 -17 7 5 12 14 9 21 -3 9 -8 7 -17 -4z"/>
<path d="M3851 5219 c-35 -22 -61 -42 -58 -45 4 -5 90 50 122 78 20 18 -3 6
-64 -33z"/>
<path d="M3549 5214 c-21 -23 -26 -33 -14 -26 25 12 60 50 53 57 -2 3 -20 -12
-39 -31z"/>
<path d="M3306 5189 c29 -30 56 -67 62 -84 10 -30 10 -30 11 -4 1 32 -25 66
-82 110 l-42 32 51 -54z"/>
<path d="M3300 5236 c0 -3 14 -12 30 -21 17 -9 30 -13 30 -11 0 3 -13 12 -30
21 -16 9 -30 13 -30 11z"/>
<path d="M2082 5218 c3 -7 15 -15 27 -16 16 -3 22 1 19 10 -3 7 -15 15 -27 16
-16 3 -22 -1 -19 -10z"/>
<path d="M2150 5220 c0 -5 5 -10 11 -10 5 0 7 5 4 10 -3 6 -8 10 -11 10 -2 0
-4 -4 -4 -10z"/>
<path d="M3538 5172 c-75 -62 -79 -72 -57 -173 l11 -52 20 24 20 24 -6 -32
c-4 -26 -3 -31 11 -26 13 5 14 3 4 -15 -15 -27 -14 -55 0 -46 8 5 10 -1 7 -20
-3 -14 -1 -26 5 -26 5 0 6 -5 1 -12 -5 -7 -9 -26 -8 -43 3 -105 5 -126 13
-121 5 3 14 -8 21 -24 7 -17 16 -30 20 -30 4 0 13 13 20 30 7 16 16 27 21 24
8 -5 10 16 13 121 1 17 -3 36 -8 43 -5 7 -4 12 1 12 6 0 8 12 5 26 -3 19 -1
25 7 20 14 -9 15 19 0 46 -10 18 -9 20 4 15 13 -5 15 -1 10 24 -4 22 -2 28 8
24 10 -4 21 14 37 57 26 74 28 107 7 134 -14 18 -14 17 -5 -9 20 -55 12 -63
-25 -27 -19 18 -32 36 -30 40 3 4 -5 16 -18 26 l-22 19 19 -22 c11 -13 14 -23
8 -23 -6 0 -19 11 -29 24 l-18 24 -67 -56z"/>
<path d="M2865 5202 c-16 -9 -57 -26 -90 -37 l-60 -20 -3 -52 c-4 -61 2 -64
71 -34 138 59 157 71 157 100 0 15 -8 35 -18 44 -22 20 -20 20 -57 -1z"/>
<path d="M4270 5191 c-22 -42 -13 -57 58 -89 59 -27 148 -62 158 -62 2 0 4 22
4 49 0 58 -22 81 -77 81 -18 0 -33 4 -33 8 0 9 -59 32 -83 32 -9 0 -21 -9 -27
-19z"/>
<path d="M2162 5178 c-18 -18 -14 -28 11 -28 30 0 40 10 26 27 -14 16 -22 16
-37 1z"/>
<path d="M5002 5178 c-18 -18 -15 -28 9 -28 28 0 61 19 54 31 -9 13 -49 11
-63 -3z"/>
<path d="M3460 5156 c-6 -8 -10 -25 -8 -36 2 -17 5 -14 14 14 12 40 12 42 -6
22z"/>
<path d="M4612 5140 c-18 -29 -15 -38 4 -12 9 13 14 25 12 27 -2 2 -9 -5 -16
-15z"/>
<path d="M2045 5130 c-3 -6 1 -7 9 -4 18 7 21 14 7 14 -6 0 -13 -4 -16 -10z"/>
<path d="M2589 5123 c12 -24 31 -39 31 -25 0 5 -10 17 -21 28 -22 19 -22 19
-10 -3z"/>
<path d="M4157 5094 c-4 -4 -4 -10 -1 -15 6 -10 34 0 34 12 0 10 -24 12 -33 3z"/>
<path d="M4542 5023 c-24 -36 -41 -67 -39 -69 3 -3 23 25 47 61 54 87 48 93
-8 8z"/>
<path d="M2096 5061 c-9 -14 5 -42 18 -38 15 5 14 39 -1 44 -6 2 -14 0 -17 -6z"/>
<path d="M5126 5054 c-9 -23 -8 -24 24 -24 23 0 30 4 30 20 0 25 -45 28 -54 4z"/>
<path d="M2651 5013 c27 -46 39 -60 39 -47 0 11 -48 84 -56 84 -3 0 4 -17 17
-37z"/>
<path d="M1960 5030 c0 -8 5 -22 10 -30 9 -13 11 -13 20 0 5 8 9 20 9 25 0 6
-3 4 -6 -3 -4 -10 -8 -9 -19 5 -11 14 -13 15 -14 3z"/>
<path d="M2135 5030 c-4 -6 -3 -14 0 -20 4 -6 -5 -8 -22 -4 -21 4 -31 0 -41
-15 -15 -26 -2 -51 39 -75 27 -16 29 -16 39 3 5 11 13 40 16 64 5 35 3 45 -10
50 -8 3 -18 2 -21 -3z"/>
<path d="M5224 5024 c3 -8 2 -12 -3 -9 -5 3 -12 1 -15 -4 -4 -5 -1 -13 5 -17
12 -7 29 12 29 34 0 6 -5 12 -11 12 -6 0 -8 -7 -5 -16z"/>
<path d="M2014 5015 c-8 -20 4 -35 27 -35 23 0 26 35 3 44 -22 8 -24 8 -30 -9z"/>
<path d="M5153 5013 c-23 -9 -15 -35 10 -31 12 2 22 9 22 17 0 16 -14 22 -32
14z"/>
<path d="M3379 5005 c-1 -5 -2 -32 -3 -60 l-1 -50 -58 0 c-31 0 -57 -3 -57 -7
0 -3 -3 -13 -6 -21 -4 -12 2 -13 48 -1 29 8 60 12 69 9 14 -5 18 3 21 42 4 42
-7 114 -13 88z"/>
<path d="M2241 4981 c-24 -24 -27 -51 -9 -69 19 -19 54 -14 86 13 21 18 43 25
73 26 l44 1 -55 18 c-100 32 -117 33 -139 11z"/>
<path d="M3808 4983 c-2 -10 -2 -40 0 -66 3 -39 7 -47 21 -42 9 3 40 -1 67 -8
48 -13 51 -12 46 5 -3 13 -15 18 -46 19 -74 2 -71 0 -71 51 0 49 -9 71 -17 41z"/>
<path d="M3420 4978 c0 -7 5 -20 10 -28 8 -12 10 -11 10 7 0 12 -4 25 -10 28
-5 3 -10 0 -10 -7z"/>
<path d="M4862 4982 c-7 -5 -10 -15 -7 -23 8 -21 71 -61 91 -57 28 5 40 33 26
62 -10 22 -18 26 -54 26 -24 0 -49 -4 -56 -8z"/>
<path d="M3460 4970 c0 -8 5 -22 10 -30 9 -13 10 -13 10 0 0 8 -5 22 -10 30
-9 13 -10 13 -10 0z"/>
<path d="M3773 4890 c2 -72 4 -80 22 -81 19 0 18 -1 -2 -11 -25 -12 -31 -42
-11 -54 17 -11 48 -12 53 -4 3 4 16 5 30 2 18 -3 25 -11 25 -28 0 -23 15 -40
23 -27 3 5 2 27 -3 51 -7 40 -3 48 23 43 5 -1 7 4 5 10 -5 15 -108 52 -108 39
0 -4 -9 -6 -20 -3 -16 4 -18 8 -9 19 8 10 8 14 0 14 -6 0 -10 8 -9 18 3 41 -3
92 -11 92 -5 0 -9 -36 -8 -80z"/>
<path d="M4795 4960 c-17 -7 -15 -9 13 -9 17 -1 32 4 32 9 0 12 -17 12 -45 0z"/>
<path d="M1812 4938 c-20 -20 -14 -49 18 -80 30 -28 40 -45 18 -32 -6 4 -8 3
-5 -3 4 -6 18 -8 31 -6 l25 5 -29 44 c-17 23 -34 52 -38 64 -6 16 -10 18 -20
8z"/>
<path d="M3300 4941 c0 -13 26 -32 33 -24 4 3 15 0 24 -8 10 -7 7 -1 -6 14
-24 26 -51 36 -51 18z"/>
<path d="M3408 4923 c0 -16 -1 -36 0 -45 1 -10 -3 -18 -9 -18 -8 0 -8 -4 0
-14 9 -11 7 -15 -9 -19 -11 -3 -20 -2 -20 3 0 4 -28 0 -62 -9 -46 -12 -66 -23
-74 -39 -6 -13 -14 -23 -18 -23 -22 3 -25 -2 -19 -29 3 -19 1 -30 -6 -30 -6 0
-11 -7 -11 -15 0 -8 4 -15 9 -15 5 0 35 -26 67 -57 32 -32 52 -51 45 -41 -6 9
-8 18 -3 20 5 1 12 23 16 47 6 38 5 42 -8 32 -8 -7 -16 -28 -18 -48 l-3 -35
-24 33 c-21 29 -23 37 -14 70 6 25 7 41 0 48 -5 5 -6 22 -3 37 5 19 10 24 15
15 5 -7 11 -12 15 -12 20 3 23 -3 16 -41 -5 -24 -6 -46 -3 -51 8 -13 23 4 23
27 0 27 39 40 76 26 42 -16 62 38 22 58 -18 8 -19 11 -5 11 14 1 17 11 17 71
0 68 -8 98 -12 43z m-178 -225 c0 -32 -3 -39 -10 -28 -13 20 -13 70 0 70 6 0
10 -19 10 -42z"/>
<path d="M3849 4922 c-13 -14 -16 -21 -7 -13 9 7 21 10 26 7 6 -3 15 0 21 8
23 27 -16 25 -40 -2z"/>
<path d="M5370 4940 c0 -9 -11 -32 -25 -53 -14 -20 -23 -42 -20 -47 3 -6 -2
-10 -11 -10 -14 0 -15 -3 -6 -12 8 -8 17 -8 34 0 13 6 17 11 9 11 -8 1 -3 9
13 22 42 33 49 53 26 81 -14 16 -19 19 -20 8z"/>
<path d="M2397 4929 c-41 -10 -101 -38 -95 -45 2 -2 29 6 59 18 38 15 77 22
136 22 44 1 76 4 70 8 -16 10 -123 8 -170 -3z"/>
<path d="M2760 4923 c0 -5 11 -20 25 -33 14 -13 25 -19 25 -13 0 5 -11 20 -25
33 -14 13 -25 19 -25 13z"/>
<path d="M2899 4901 c-30 -16 -54 -34 -54 -41 0 -16 171 -120 198 -120 26 0
60 39 47 55 -5 6 -6 24 -1 40 l7 30 28 -28 c15 -15 29 -27 31 -27 13 0 2 25
-22 51 -21 22 -37 29 -65 29 -34 0 -38 -3 -38 -26 0 -20 4 -25 16 -20 14 5 15
4 4 -9 -17 -21 -30 -19 -30 4 0 26 -10 51 -20 51 -5 0 -22 -12 -39 -26 -17
-14 -31 -21 -31 -16 0 6 14 22 31 35 30 24 33 47 5 47 -7 0 -37 -13 -67 -29z
m-4 -61 c17 -11 26 -20 20 -20 -5 0 -23 9 -40 20 -16 11 -25 20 -20 20 6 0 24
-9 40 -20z"/>
<path d="M4221 4921 c-10 -7 -4 -17 25 -45 22 -19 34 -36 28 -36 -6 0 -21 11
-34 25 -13 14 -29 25 -36 25 -14 0 -36 -55 -26 -65 7 -8 -39 4 -47 11 -3 3 5
11 17 20 32 22 27 34 -12 34 -26 0 -45 -9 -73 -35 -20 -19 -34 -37 -30 -41 4
-4 17 2 30 13 40 37 50 39 45 10 -3 -15 -1 -24 3 -21 5 3 9 1 9 -5 0 -5 -4
-12 -10 -16 -13 -8 -1 -35 16 -35 8 0 11 -6 8 -15 -13 -32 64 -4 119 45 20 17
45 33 54 34 10 2 18 8 18 14 0 6 3 14 8 18 13 13 8 22 -25 42 -44 26 -70 33
-87 23z"/>
<path d="M4838 4903 c83 -34 74 -39 -14 -8 -93 33 -138 31 -262 -10 -58 -20
-107 -34 -109 -31 -2 2 17 12 44 21 77 27 93 36 53 29 -46 -8 -112 -42 -105
-54 3 -5 -7 -16 -23 -24 -36 -19 -94 -84 -87 -97 10 -14 78 -11 126 8 40 15
138 22 339 25 44 1 171 -14 239 -28 49 -10 32 11 -35 43 -53 25 -76 43 -54 43
14 0 107 -47 114 -58 3 -5 29 -7 58 -5 l53 4 -34 -19 -34 -19 24 -16 c41 -30
73 -18 81 30 l3 21 59 -24 c32 -14 60 -24 62 -22 2 2 5 19 6 37 3 37 4 36 -88
75 -65 27 -99 32 -124 16 -11 -7 -5 -10 24 -10 22 0 54 -9 73 -21 43 -27 36
-37 -9 -13 -18 10 -62 21 -98 24 -36 4 -93 13 -127 20 -59 13 -64 13 -112 -9
-57 -27 -123 -25 -168 4 -41 27 -10 31 33 4 l36 -22 45 22 c24 12 42 17 38 11
-9 -15 1 -12 35 8 l30 19 -40 18 c-22 10 -40 22 -40 27 0 4 -17 8 -37 8 -38
-1 -37 -1 25 -27z"/>
<path d="M5455 4920 c-3 -5 -2 -10 4 -10 5 0 13 5 16 10 3 6 2 10 -4 10 -5 0
-13 -4 -16 -10z"/>
<path d="M1720 4909 c0 -5 5 -7 10 -4 6 3 10 8 10 11 0 2 -4 4 -10 4 -5 0 -10
-5 -10 -11z"/>
<path d="M2410 4906 c-25 -6 -54 -17 -64 -23 -18 -10 -16 -13 22 -37 43 -27
62 -32 62 -18 0 10 80 36 87 28 11 -11 -64 -46 -99 -46 -20 0 -62 10 -93 22
-55 21 -59 21 -123 5 -37 -9 -95 -18 -130 -21 -34 -3 -76 -13 -93 -22 -17 -8
-33 -14 -35 -11 -9 9 49 38 89 46 l42 7 -31 8 c-23 5 -48 0 -100 -21 -87 -36
-94 -40 -94 -62 0 -39 26 -45 86 -22 68 26 67 25 59 2 -14 -45 14 -61 74 -40
39 14 39 21 -1 42 l-33 16 50 1 c34 0 62 8 90 25 22 14 49 25 60 25 14 0 4 -9
-28 -29 -64 -37 -77 -51 -50 -51 12 0 24 4 27 9 8 13 52 19 68 10 8 -5 36 -1
64 7 35 11 66 13 109 8 33 -4 110 -8 170 -9 77 -1 121 -7 147 -19 40 -17 103
-22 112 -7 13 21 -54 90 -119 121 -36 17 -65 33 -65 35 0 5 42 -10 71 -25 10
-6 19 -8 19 -5 0 13 -112 57 -121 48 -7 -7 -30 -5 -67 3 -69 16 -103 17 -162
0z"/>
<path d="M1640 4890 c0 -5 5 -10 11 -10 5 0 7 5 4 10 -3 6 -8 10 -11 10 -2 0
-4 -4 -4 -10z"/>
<path d="M1761 4856 c-10 -12 -6 -15 19 -21 37 -8 48 -1 30 20 -16 19 -34 19
-49 1z"/>
<path d="M2125 4849 c-34 -16 -36 -18 -15 -18 35 0 89 24 70 31 -8 3 -33 -3
-55 -13z"/>
<path d="M5399 4849 l-24 -20 34 5 c18 3 37 6 42 6 5 0 9 7 9 15 0 22 -34 18
-61 -6z"/>
<path d="M1695 4850 c3 -5 11 -10 16 -10 6 0 7 5 4 10 -3 6 -11 10 -16 10 -6
0 -7 -4 -4 -10z"/>
<path d="M3991 4844 c0 -11 3 -14 6 -6 3 7 2 16 -1 19 -3 4 -6 -2 -5 -13z"/>
<path d="M5020 4852 c24 -15 77 -25 65 -13 -6 6 -26 13 -45 16 -24 4 -30 3
-20 -3z"/>
<path d="M3751 4824 c0 -11 3 -14 6 -6 3 7 2 16 -1 19 -3 4 -6 -2 -5 -13z"/>
<path d="M4835 4830 c-3 -6 1 -7 9 -4 18 7 21 14 7 14 -6 0 -13 -4 -16 -10z"/>
<path d="M3920 4826 c0 -2 7 -7 16 -10 8 -3 12 -2 9 4 -6 10 -25 14 -25 6z"/>
<path d="M5425 4813 c-56 -7 -76 -14 -70 -23 9 -15 72 -12 87 3 7 8 20 16 28
20 13 5 13 5 0 5 -8 -1 -28 -3 -45 -5z"/>
<path d="M2853 4775 c30 -44 26 -53 -26 -72 l-32 -11 30 -1 c17 -1 41 6 53 15
20 14 21 17 8 42 -8 15 -24 36 -37 47 -20 18 -20 16 4 -20z"/>
<path d="M2890 4774 c22 -26 30 -44 27 -60 -3 -16 0 -24 9 -24 39 0 -20 118
-60 120 -4 0 6 -16 24 -36z"/>
<path d="M4303 4792 c-7 -4 -21 -28 -32 -54 -19 -46 -19 -46 0 -51 16 -4 19
-2 14 14 -4 12 2 34 15 56 22 37 23 47 3 35z"/>
<path d="M3957 4767 c3 -14 1 -27 -5 -31 -6 -3 -5 -20 1 -45 9 -34 8 -43 -8
-61 -31 -34 -2 -22 34 15 18 19 41 37 51 40 18 6 35 45 19 45 -5 0 -9 -7 -9
-15 0 -9 -9 -15 -21 -15 -18 0 -20 4 -15 25 4 14 2 25 -3 25 -6 0 -19 9 -29
20 l-19 21 4 -24z m33 -54 c0 -16 -5 -35 -10 -43 -7 -11 -10 -4 -10 28 0 23 5
42 10 42 6 0 10 -12 10 -27z"/>
<path d="M4320 4760 c-6 -11 -8 -20 -6 -20 3 0 10 9 16 20 6 11 8 20 6 20 -3
0 -10 -9 -16 -20z"/>
<path d="M2953 4745 c21 -19 39 -25 70 -24 40 1 40 1 11 8 -17 4 -45 15 -64
24 -45 23 -50 21 -17 -8z"/>
<path d="M3513 4740 c1 -11 5 -20 9 -20 11 0 10 28 -1 35 -6 3 -9 -4 -8 -15z"/>
<path d="M3677 4753 c-4 -3 -7 -13 -7 -22 1 -13 3 -13 11 2 11 19 8 33 -4 20z"/>
<path d="M4208 4741 c-49 -23 -58 -33 -21 -22 34 10 73 29 73 36 0 8 -13 4
-52 -14z"/>
<path d="M2340 4733 c-14 -3 -29 -9 -35 -15 -7 -7 -2 -8 15 -3 14 5 50 11 80
15 54 7 54 7 10 7 -25 0 -56 -2 -70 -4z"/>
<path d="M2587 4733 c18 -2 50 -2 70 0 21 2 7 4 -32 4 -38 0 -55 -2 -38 -4z"/>
<path d="M3137 4720 c6 -22 23 -38 23 -21 0 17 -12 41 -20 41 -5 0 -6 -9 -3
-20z"/>
<path d="M4623 4733 c9 -2 23 -2 30 0 6 3 -1 5 -18 5 -16 0 -22 -2 -12 -5z"/>
<path d="M4756 4732 c-2 -4 12 -6 32 -4 22 2 60 -5 92 -18 54 -21 132 -22 145
0 9 14 -47 22 -76 9 -23 -9 -36 -8 -69 5 -42 17 -115 22 -124 8z"/>
<path d="M1945 4716 c-19 -14 -13 -36 9 -36 8 0 19 6 25 14 18 21 -10 40 -34
22z"/>
<path d="M5227 4724 c-14 -14 -7 -35 11 -32 9 2 17 10 17 17 0 16 -18 25 -28
15z"/>
<path d="M2180 4711 c0 -11 79 -26 88 -16 11 10 -21 25 -55 25 -18 0 -33 -4
-33 -9z"/>
<path d="M3755 4710 c4 -6 11 -8 16 -5 5 4 9 0 9 -8 0 -7 15 -31 33 -53 19
-21 36 -46 40 -54 3 -9 6 -5 6 11 1 14 -8 34 -20 45 -12 10 -27 31 -35 46 -9
17 -23 28 -35 28 -11 0 -17 -5 -14 -10z"/>
<path d="M4314 4705 c11 -8 31 -15 45 -15 31 1 12 14 -34 24 -28 6 -29 5 -11
-9z"/>
<path d="M4500 4693 c-19 -9 -62 -24 -95 -34 -48 -14 -54 -18 -29 -18 18 -1
62 10 98 24 37 14 79 25 94 26 24 0 25 1 7 9 -27 12 -34 11 -75 -7z"/>
<path d="M2600 4690 c-10 -7 -4 -8 20 -4 24 4 51 -1 85 -16 28 -12 86 -28 130
-36 97 -17 94 -17 69 0 -11 8 -46 17 -79 21 -33 4 -82 16 -108 26 -52 21 -94
24 -117 9z"/>
<path d="M3660 4679 c0 -5 5 -7 10 -4 6 3 10 8 10 11 0 2 -4 4 -10 4 -5 0 -10
-5 -10 -11z"/>
<path d="M2603 4669 c-18 -5 -59 -35 -92 -67 l-61 -58 0 -60 c0 -77 16 -99
107 -146 66 -34 114 -45 236 -53 48 -3 102 -29 92 -44 -2 -5 4 -11 15 -14 26
-7 25 1 -2 32 l-23 25 35 -25 c160 -116 164 -118 231 -125 80 -8 101 2 131 59
33 65 32 204 -2 272 -25 51 -32 56 -130 100 -30 13 -66 32 -80 42 -14 9 -19
11 -12 3 18 -21 14 -35 -5 -18 -14 13 -103 31 -103 21 0 -1 21 -11 48 -23 53
-24 112 -61 112 -72 0 -4 -21 6 -47 23 -51 32 -187 79 -229 79 -14 0 -59 14
-101 30 -41 17 -78 30 -81 29 -4 0 -21 -5 -39 -10z m39 -61 c-7 -7 -12 -15
-12 -19 0 -11 140 -18 167 -8 23 8 24 8 13 -6 -9 -11 -32 -15 -86 -15 -41 0
-74 -4 -74 -8 0 -5 13 -21 29 -36 28 -27 31 -27 83 -18 98 19 137 22 143 12 3
-5 17 -10 31 -10 16 0 23 -4 18 -11 -3 -6 -1 -14 5 -18 8 -5 9 -15 2 -32 -5
-13 -10 -19 -10 -13 -2 20 -51 66 -66 60 -8 -3 -15 -1 -15 5 0 8 -16 9 -47 5
-82 -12 -107 -24 -127 -61 -11 -19 -23 -35 -29 -35 -5 0 -2 11 7 25 23 35 20
55 -19 100 -32 38 -35 39 -51 23 -16 -16 -16 -19 -2 -35 13 -16 13 -20 -4 -35
-13 -14 -18 -15 -18 -4 0 7 -15 17 -32 21 l-33 8 35 6 35 7 -28 15 -28 15 21
26 c15 19 17 28 8 31 -7 3 -1 6 15 6 15 1 27 -4 27 -10 0 -7 9 -5 23 4 27 19
35 21 19 5z m211 -165 c42 -3 77 -10 77 -14 0 -18 -157 1 -190 23 -11 7 -8 8
10 3 14 -3 60 -9 103 -12z m-43 -63 c-20 -20 -24 -32 -21 -59 2 -7 -3 -10 -9
-6 -19 12 16 85 42 85 4 0 -1 -9 -12 -20z m30 -20 c-11 -22 -26 -40 -32 -40
-7 0 -5 7 4 18 9 9 19 27 22 40 4 12 12 22 17 22 5 0 0 -18 -11 -40z"/>
<path d="M2572 4578 c-7 -7 -12 -17 -12 -22 0 -6 5 -3 11 8 9 15 13 16 20 5 6
-9 9 -10 9 -2 0 18 -15 24 -28 11z"/>
<path d="M3883 4660 c4 -14 7 -35 7 -47 0 -13 5 -23 10 -23 17 0 11 66 -7 81
-15 13 -16 11 -10 -11z"/>
<path d="M4520 4671 c-14 -5 -39 -15 -56 -24 -18 -9 -67 -24 -110 -32 -97 -20
-178 -56 -221 -98 -18 -17 -33 -26 -33 -21 0 13 58 68 88 84 13 6 46 18 74 26
60 18 58 29 -3 15 -24 -6 -61 -11 -81 -11 -56 0 -199 -69 -231 -111 -37 -50
-50 -111 -43 -198 8 -79 16 -102 49 -138 18 -20 30 -23 96 -23 75 0 78 1 136
45 68 51 182 114 170 95 -6 -10 -4 -11 11 -5 10 4 60 11 111 15 70 6 107 15
155 37 78 37 128 84 128 123 0 25 -48 168 -50 145 0 -5 -17 7 -37 27 -61 57
-92 67 -153 49z m39 -50 c18 -13 35 -18 57 -14 30 5 34 3 41 -23 4 -16 6 -35
4 -42 -1 -8 4 -21 11 -29 12 -15 11 -15 -9 -2 -12 7 -26 9 -30 5 -4 -5 -2 -11
5 -13 6 -3 12 -9 12 -14 0 -6 -4 -8 -9 -5 -5 3 -12 -4 -16 -17 -5 -17 -8 -18
-12 -7 -3 8 -11 19 -17 23 -8 6 -7 10 2 14 16 6 16 38 -1 51 -10 9 -23 1 -57
-33 l-43 -44 22 -37 c12 -20 20 -39 17 -42 -3 -2 -15 12 -27 32 -16 27 -26 35
-38 30 -29 -13 -135 -34 -166 -33 -16 1 9 9 57 19 99 21 118 29 96 41 -28 15
-128 23 -128 10 0 -7 -5 -9 -10 -6 -14 8 -38 -12 -62 -50 -11 -19 -18 -24 -18
-13 0 9 -3 23 -6 32 -4 11 -1 16 11 16 11 0 15 5 11 15 -4 11 1 15 19 15 14 0
25 5 25 11 0 12 56 7 143 -12 44 -10 50 -9 82 15 64 49 40 67 -63 47 -34 -7
-47 -5 -63 8 -19 15 -14 16 83 13 l103 -2 -33 30 c-36 33 -31 40 7 11z m-178
-221 c25 -14 50 -63 40 -79 -20 -32 -71 19 -71 69 0 23 4 24 31 10z"/>
<path d="M4600 4590 c-13 -8 -12 -13 9 -32 23 -23 23 -23 10 -1 -7 12 -10 26
-6 30 5 4 12 1 17 -7 5 -8 12 -11 15 -8 9 9 -3 28 -18 28 -7 0 -19 -5 -27 -10z"/>
<path d="M4364 4375 c4 -16 15 -36 24 -43 30 -23 27 17 -3 47 l-27 26 6 -30z"/>
<path d="M4043 4646 c-13 -6 -23 -14 -23 -19 0 -6 55 17 69 29 9 8 -25 1 -46
-10z"/>
<path d="M4253 4653 c-18 -2 -33 -8 -33 -12 0 -9 77 2 87 13 4 3 0 5 -8 4 -8
0 -29 -3 -46 -5z"/>
<path d="M2925 4640 c28 -12 57 -12 50 0 -3 6 -21 10 -38 9 -27 0 -29 -2 -12
-9z"/>
<path d="M4852 4570 c-13 -16 -19 -30 -14 -30 4 0 16 14 25 30 10 17 16 30 14
30 -2 0 -13 -13 -25 -30z"/>
<path d="M3560 4583 c-37 -13 -47 -63 -13 -63 8 0 13 -6 10 -12 -2 -7 -10 -12
-17 -10 -22 5 -50 -9 -51 -26 0 -11 -3 -12 -6 -4 -2 6 -11 12 -19 12 -33 0 7
-38 51 -49 52 -13 64 -37 13 -26 -18 4 -39 12 -45 17 -16 13 -17 3 -3 -23 6
-10 20 -19 30 -19 11 0 20 -4 20 -10 0 -5 9 -10 20 -10 10 0 24 -10 31 -21 12
-23 4 -24 -45 -3 -20 8 -20 -2 -1 -48 5 -13 2 -15 -12 -12 -63 17 -121 -149
-76 -216 46 -71 142 -151 177 -149 14 0 16 2 6 6 -29 10 -110 65 -110 74 0 6
7 6 18 0 9 -5 52 -19 95 -31 59 -16 85 -19 105 -11 23 8 19 10 -33 11 -43 1
-53 4 -35 9 21 6 18 8 -23 14 -54 8 -117 37 -147 69 -23 25 -24 57 -5 108 11
31 14 33 20 15 43 -115 93 -175 146 -175 45 0 212 59 269 94 37 23 40 27 17
21 -25 -5 -28 -3 -22 14 3 11 -1 36 -10 57 -18 43 -31 41 -15 -2 6 -15 9 -38
6 -50 -4 -13 -1 -24 7 -27 12 -4 -83 -57 -104 -57 -6 0 1 14 15 31 15 17 26
42 25 57 0 16 -3 21 -6 12 -34 -95 -101 -140 -195 -132 -28 3 -21 22 7 22 58
0 138 51 156 99 14 36 -17 135 -47 151 -13 7 -21 18 -17 24 4 7 2 7 -6 0 -10
-9 -10 -17 -1 -33 15 -29 40 -101 35 -101 -3 0 -12 14 -21 32 -31 60 -39 59
-40 -6 0 -36 -7 -74 -18 -93 -25 -48 -38 -40 -16 10 29 62 24 165 -6 153 -18
-7 -17 2 1 34 21 37 18 42 -15 25 -41 -21 -53 -20 -40 5 6 11 20 20 30 20 11
0 20 5 20 10 0 6 6 10 14 10 7 0 16 9 19 19 4 17 2 18 -20 10 -31 -12 -43 -11
-43 1 0 5 19 14 43 21 44 11 67 25 67 40 0 14 -28 11 -33 -3 -4 -8 -6 -7 -6 3
-1 18 -21 29 -52 29 -10 0 -19 5 -19 10 0 6 6 10 14 10 17 0 25 18 18 41 -5
23 -73 36 -112 22z m-50 -348 c-7 -8 -23 -40 -37 -72 l-24 -58 5 43 c4 43 57
135 64 113 2 -7 -1 -18 -8 -26z m235 -116 c-6 -27 -45 -72 -45 -52 0 6 7 16
15 23 9 8 15 30 16 59 0 40 2 43 10 22 5 -14 7 -37 4 -52z"/>
<path d="M3680 4576 c0 -8 4 -17 9 -20 5 -4 7 3 4 14 -6 23 -13 26 -13 6z"/>
<path d="M3710 4580 c0 -5 5 -10 10 -10 6 0 10 5 10 10 0 6 -4 10 -10 10 -5 0
-10 -4 -10 -10z"/>
<path d="M3906 4571 c-4 -5 3 -7 14 -4 23 6 26 13 6 13 -8 0 -17 -4 -20 -9z"/>
<path d="M3820 4559 c0 -5 5 -7 10 -4 6 3 10 8 10 11 0 2 -4 4 -10 4 -5 0 -10
-5 -10 -11z"/>
<path d="M3450 4534 c0 -8 5 -12 10 -9 6 3 10 10 10 16 0 5 -4 9 -10 9 -5 0
-10 -7 -10 -16z"/>
<path d="M3757 4531 c3 -12 9 -21 14 -21 14 0 11 16 -5 29 -12 10 -13 8 -9 -8z"/>
<path d="M3895 4540 c-3 -5 -1 -10 4 -10 6 0 11 5 11 10 0 6 -2 10 -4 10 -3 0
-8 -4 -11 -10z"/>
<path d="M1761 4521 c-8 -5 -16 -20 -18 -33 -2 -18 -1 -20 7 -8 8 12 13 13 30
3 11 -7 29 -13 40 -13 18 0 19 3 9 23 -19 36 -41 45 -68 28z"/>
<path d="M3416 4514 c-4 -9 -4 -19 -1 -22 2 -3 7 3 11 12 4 9 4 19 1 22 -2 3
-7 -3 -11 -12z"/>
<path d="M3841 4503 c-9 -19 -9 -29 -1 -37 9 -8 11 -7 9 4 -2 8 2 25 9 38 7
12 9 22 4 22 -5 0 -14 -12 -21 -27z"/>
<path d="M2431 4459 c-1 -33 5 -54 19 -70 10 -13 19 -19 20 -13 0 5 -5 15 -12
22 -7 7 -15 33 -19 60 l-6 47 -2 -46z"/>
<path d="M3413 4450 c3 -14 9 -46 12 -72 4 -26 14 -53 23 -60 14 -11 15 -10 7
7 -16 40 -18 75 -4 75 10 1 9 5 -4 14 -11 9 -14 15 -7 18 7 2 2 12 -11 23
l-22 20 6 -25z"/>
<path d="M3766 4443 c-6 -14 -5 -15 5 -6 7 7 10 15 7 18 -3 3 -9 -2 -12 -12z"/>
<path d="M3716 4395 c-3 -8 -1 -15 4 -15 6 0 10 7 10 15 0 8 -2 15 -4 15 -2 0
-6 -7 -10 -15z"/>
<path d="M3751 4394 c0 -11 3 -14 6 -6 3 7 2 16 -1 19 -3 4 -6 -2 -5 -13z"/>
<path d="M5630 4400 c0 -5 5 -10 10 -10 6 0 10 5 10 10 0 6 -4 10 -10 10 -5 0
-10 -4 -10 -10z"/>
<path d="M3787 4380 c8 -30 21 -34 15 -5 -2 14 -8 25 -12 25 -5 0 -6 -9 -3
-20z"/>
<path d="M4820 4362 c-77 -20 -180 -86 -180 -116 0 -5 12 2 28 16 49 45 86 65
167 91 91 29 82 34 -15 9z"/>
<path d="M2204 4362 c5 -9 -6 -12 -38 -12 -36 0 -48 -5 -66 -27 -27 -34 -18
-43 67 -59 95 -19 155 -17 218 5 30 11 55 15 55 10 0 -16 -93 -69 -119 -68
-24 0 -24 1 -6 9 24 10 1 13 -33 4 -22 -6 -22 -8 -6 -25 24 -27 118 -59 172
-59 66 0 121 39 122 88 0 32 -64 88 -130 113 -64 24 -248 40 -236 21z m181
-18 c66 -11 175 -77 175 -106 0 -5 -19 6 -42 26 -40 35 -72 50 -173 80 -49 15
-44 15 40 0z"/>
<path d="M4901 4354 c-109 -23 -154 -42 -210 -92 l-54 -48 17 -26 c36 -56 149
-62 232 -13 52 31 56 45 12 45 -38 0 -107 29 -127 53 -17 21 -1 23 37 3 47
-24 97 -27 195 -12 53 8 101 17 107 21 26 16 -46 79 -78 68 -7 -3 -20 -2 -30
3 -28 12 -34 12 -101 -2z"/>
<path d="M3750 4340 c0 -5 5 -10 10 -10 6 0 10 5 10 10 0 6 -4 10 -10 10 -5 0
-10 -4 -10 -10z"/>
<path d="M5309 4323 c-13 -16 -12 -17 4 -4 9 7 17 15 17 17 0 8 -8 3 -21 -13z"/>
<path d="M3476 4305 c4 -8 8 -15 10 -15 2 0 4 7 4 15 0 8 -4 15 -10 15 -5 0
-7 -7 -4 -15z"/>
<path d="M3434 4289 c-21 -27 -52 -100 -38 -88 21 18 56 78 52 90 -2 7 -7 7
-14 -2z"/>
<path d="M4610 4273 l-30 -28 30 -52 c25 -44 37 -54 71 -63 22 -6 46 -9 52 -6
7 2 2 5 -10 5 -30 1 -99 64 -107 98 -5 19 -1 32 15 49 31 33 16 30 -21 -3z"/>
<path d="M2573 4274 c30 -36 22 -68 -29 -113 -50 -44 -51 -50 -4 -26 29 15 80
73 80 92 0 5 -15 22 -32 39 -18 16 -25 20 -15 8z"/>
<path d="M4475 4270 l-20 -9 20 0 c11 0 27 4 35 9 13 9 13 10 0 9 -8 0 -24 -4
-35 -9z"/>
<path d="M2090 4231 c63 -21 139 -50 168 -65 28 -14 52 -24 52 -21 0 18 -221
105 -300 118 -19 4 17 -11 80 -32z"/>
<path d="M4303 4244 c-18 -16 -21 -22 -8 -15 32 15 61 40 48 41 -7 0 -25 -12
-40 -26z"/>
<path d="M5071 4229 c-76 -25 -119 -44 -112 -49 9 -5 6 -9 -11 -13 -12 -4 -36
-18 -53 -32 -25 -21 -28 -26 -15 -35 23 -15 95 -12 139 6 22 9 52 31 66 50 14
19 31 34 36 34 18 0 -28 -64 -58 -82 -81 -50 -84 -51 -163 -44 -225 21 -310
41 -378 92 -20 16 -31 20 -23 11 13 -16 12 -17 -13 -7 -34 12 -64 13 -50 1 5
-5 27 -14 49 -21 22 -7 34 -15 27 -18 -7 -2 -32 3 -56 11 -42 15 -45 14 -64
-6 -29 -33 -33 -55 -18 -91 14 -34 76 -110 83 -102 2 2 -3 19 -12 36 -12 23
-13 30 -3 24 7 -4 30 -18 51 -31 20 -13 63 -31 95 -40 77 -23 284 -19 397 7
148 35 155 35 205 1 64 -43 97 -41 162 12 29 24 61 46 70 50 22 8 34 55 21 76
-13 21 -50 26 -70 9 -9 -7 -24 -26 -34 -42 -15 -25 -19 -27 -25 -13 -5 14 -14
16 -40 11 -62 -11 -109 43 -68 77 15 12 19 11 32 -9 8 -12 24 -22 35 -22 11 0
28 -7 37 -15 15 -14 18 -14 23 -1 7 19 -28 50 -48 43 -8 -4 -15 -2 -15 4 0 5
6 12 14 15 9 3 12 12 9 21 -4 11 -3 14 6 9 7 -5 16 -19 21 -32 13 -32 38 -41
58 -20 16 16 14 20 -31 61 -78 72 -139 80 -274 39 -46 -14 -86 -24 -89 -22 -2
3 50 22 116 43 66 21 120 39 120 41 0 9 -31 1 -149 -37z m-411 -149 c43 -17
198 -35 284 -32 22 1 59 13 85 29 34 20 42 22 31 8 -8 -10 -34 -27 -57 -37
-61 -27 -271 -17 -361 18 -34 13 -71 24 -82 24 -11 0 -20 5 -20 10 0 14 60 3
120 -20z"/>
<path d="M1965 4223 c-49 -15 -155 -85 -155 -103 0 -5 15 -21 34 -35 39 -30
128 -46 141 -25 6 9 0 12 -23 8 -17 -2 -29 -1 -26 4 3 4 -2 8 -11 8 -9 0 -14
4 -10 9 8 15 -15 25 -28 12 -6 -6 -15 -11 -21 -11 -6 0 -5 5 2 12 7 7 12 22
12 34 0 20 2 21 24 11 13 -7 22 -15 20 -19 -3 -4 1 -16 8 -27 12 -20 13 -20
36 2 20 18 24 19 32 7 28 -43 -1 -70 -74 -70 -25 0 -46 -5 -46 -10 0 -6 -18 8
-40 31 -37 40 -41 41 -62 27 -29 -19 -35 -62 -11 -83 59 -54 138 -105 162
-105 15 0 49 14 75 31 l48 32 71 -13 c40 -6 92 -18 116 -26 25 -8 76 -14 115
-15 39 0 94 -4 121 -9 45 -7 41 -8 -45 -10 -82 -2 -89 -4 -55 -11 100 -22 101
-22 142 4 22 14 67 33 99 43 33 9 77 27 100 40 51 30 59 30 40 2 -30 -42 -16
-42 27 -1 51 50 84 60 125 39 17 -9 48 -16 69 -15 37 1 37 1 9 9 -50 15 -74
52 -80 124 -1 5 -12 16 -26 24 l-25 16 18 -21 c10 -12 21 -40 24 -62 5 -36 3
-41 -15 -41 -19 0 -19 3 -9 31 12 30 10 33 -32 70 -54 49 -73 51 -32 4 17 -20
31 -46 31 -58 -1 -18 -5 -15 -21 16 -26 49 -88 90 -123 81 -14 -3 -26 -10 -26
-15 0 -6 9 -5 20 1 13 7 20 7 20 1 0 -15 -47 -36 -110 -51 -30 -7 -67 -19 -82
-26 -15 -8 -71 -19 -124 -24 -54 -6 -100 -12 -103 -15 -2 -3 42 -2 100 1 79 5
116 12 155 30 28 13 66 24 85 23 l34 -1 -41 -13 c-22 -7 -58 -22 -80 -32 -53
-27 -289 -40 -337 -19 -40 18 -127 108 -127 132 0 14 7 11 35 -16 19 -18 32
-37 29 -41 -2 -4 1 -11 7 -15 8 -5 9 -3 4 6 -6 10 -4 11 11 5 32 -13 123 -27
139 -21 27 10 16 23 -45 55 -52 28 -223 92 -239 90 -3 0 -28 -7 -56 -16z m800
-83 c3 -6 -5 -10 -19 -10 -13 0 -33 -3 -43 -7 -16 -6 -16 -5 -4 10 15 19 56
23 66 7z"/>
<path d="M3289 4163 c-34 -68 -82 -91 -158 -75 -61 13 -79 8 -35 -9 80 -30
190 14 214 87 18 53 6 51 -21 -3z"/>
<path d="M2989 4176 c8 -9 24 -22 35 -28 19 -10 20 -10 7 6 -8 9 -24 22 -35
28 -19 10 -20 10 -7 -6z"/>
<path d="M4183 4164 l-28 -26 33 22 c29 20 39 30 28 30 -3 0 -18 -12 -33 -26z"/>
<path d="M4315 4165 c-22 -7 -31 -13 -20 -13 11 0 38 5 60 13 22 7 31 13 20
13 -11 0 -38 -5 -60 -13z"/>
<path d="M4541 4167 c2 -1 13 -9 24 -17 19 -14 19 -14 6 3 -7 9 -18 17 -24 17
-6 0 -8 -1 -6 -3z"/>
<path d="M2628 4153 c7 -3 16 -2 19 1 4 3 -2 6 -13 5 -11 0 -14 -3 -6 -6z"/>
<path d="M3507 4108 c3 -28 13 -51 30 -65 37 -35 48 -27 22 15 -12 20 -29 49
-36 65 -8 15 -16 27 -18 27 -2 0 -1 -19 2 -42z"/>
<path d="M4347 4130 c-39 -62 -30 -106 38 -170 l38 -35 -26 40 c-14 22 -33 56
-41 76 -13 31 -13 39 0 64 19 37 12 57 -9 25z"/>
<path d="M4617 4129 c7 -7 15 -10 18 -7 3 3 -2 9 -12 12 -14 6 -15 5 -6 -5z"/>
<path d="M1743 4118 c-15 -7 -23 -20 -23 -35 l0 -24 34 28 c46 36 38 55 -11
31z"/>
<path d="M4296 4098 c-8 -18 -17 -41 -20 -50 -8 -28 -51 -49 -118 -57 l-63 -8
70 -1 c39 0 84 3 100 7 27 6 31 11 36 56 3 28 9 58 13 68 5 9 5 17 2 17 -4 0
-13 -15 -20 -32z"/>
<path d="M5417 4124 c-5 -6 48 -64 59 -64 14 0 0 42 -18 54 -25 18 -32 19 -41
10z"/>
<path d="M2423 4113 c9 -2 25 -2 35 0 9 3 1 5 -18 5 -19 0 -27 -2 -17 -5z"/>
<path d="M3130 4116 c0 -8 61 -12 66 -4 3 4 -11 8 -30 8 -20 0 -36 -2 -36 -4z"/>
<path d="M4010 4110 c-12 -8 -10 -9 10 -9 14 1 39 5 55 9 29 7 29 8 -10 9 -22
0 -47 -4 -55 -9z"/>
<path d="M4219 4103 c-13 -16 -12 -17 4 -4 16 13 21 21 13 21 -2 0 -10 -8 -17
-17z"/>
<path d="M2920 4106 c0 -2 8 -10 18 -17 15 -13 16 -12 3 4 -13 16 -21 21 -21
13z"/>
<path d="M3014 4101 c7 -11 46 -35 46 -28 0 3 -12 12 -26 22 -15 9 -23 12 -20
6z"/>
<path d="M2195 4085 c17 -8 46 -14 65 -13 l35 1 -40 6 c-22 4 -51 10 -65 14
-20 5 -19 4 5 -8z"/>
<path d="M3253 4073 c-13 -8 -40 -22 -60 -30 l-38 -14 61 5 c64 6 82 -1 102
-39 10 -17 11 -17 12 -3 0 18 -37 58 -53 58 -4 0 -5 9 -2 20 7 24 7 24 -22 3z"/>
<path d="M4063 4079 c-40 -7 -90 -29 -68 -28 6 0 44 8 85 18 75 19 62 26 -17
10z"/>
<path d="M2177 4069 c7 -7 15 -10 18 -7 3 3 -2 9 -12 12 -14 6 -15 5 -6 -5z"/>
<path d="M4918 4073 c6 -2 18 -2 25 0 6 3 1 5 -13 5 -14 0 -19 -2 -12 -5z"/>
<path d="M5685 4070 c-3 -5 1 -10 9 -10 9 0 16 5 16 10 0 6 -4 10 -9 10 -6 0
-13 -4 -16 -10z"/>
<path d="M5215 4060 c3 -5 21 -10 40 -10 19 0 37 5 40 10 4 6 -12 10 -40 10
-28 0 -44 -4 -40 -10z"/>
<path d="M2218 4053 c7 -3 16 -2 19 1 4 3 -2 6 -13 5 -11 0 -14 -3 -6 -6z"/>
<path d="M3400 4002 c0 -4 18 -26 40 -47 22 -21 40 -37 40 -34 0 3 -18 25 -40
48 -22 23 -40 38 -40 33z"/>
<path d="M2852 3979 c-13 -5 -44 -27 -70 -48 -26 -22 -72 -54 -102 -70 -30
-17 -49 -31 -42 -31 22 0 74 30 135 77 32 25 75 54 95 64 38 19 26 25 -16 8z"/>
<path d="M4205 3961 c-24 -6 -15 -9 45 -12 41 -3 84 -9 95 -13 16 -7 15 -5 -4
9 -26 20 -91 27 -136 16z"/>
<path d="M2690 3940 c-19 -11 -41 -19 -48 -20 -20 0 -86 -30 -80 -35 8 -8 122
36 149 56 31 24 23 23 -21 -1z"/>
<path d="M2932 3950 c-30 -7 -172 -94 -172 -105 0 -2 24 9 53 27 66 39 133 68
157 68 10 0 22 5 25 10 7 11 -15 11 -63 0z"/>
<path d="M3270 3945 c0 -5 5 -17 10 -25 5 -8 10 -10 10 -5 0 6 -5 17 -10 25
-5 8 -10 11 -10 5z"/>
<path d="M4494 3935 c11 -8 44 -22 74 -30 30 -9 67 -24 81 -33 l26 -16 -19 22
c-11 12 -38 27 -60 32 -23 6 -56 17 -74 25 -41 19 -53 19 -28 0z"/>
<path d="M2050 3920 c0 -5 11 -10 25 -10 14 0 25 -4 25 -10 0 -5 -12 -10 -28
-10 -38 0 -87 -29 -116 -69 -14 -18 -39 -42 -57 -53 -17 -10 -33 -28 -36 -39
-4 -15 -8 -17 -19 -8 -9 7 -30 9 -60 4 -55 -8 -51 -15 40 -75 62 -40 65 -40
111 -30 70 16 80 24 94 79 10 40 20 55 42 67 16 8 29 17 29 20 0 2 -9 0 -19
-6 -11 -5 -32 -11 -46 -12 -17 -2 -38 -17 -62 -46 -19 -24 -37 -41 -39 -39 -8
7 25 61 48 79 18 14 20 20 9 27 -8 5 -9 11 -3 15 6 3 13 2 17 -4 16 -26 116 5
136 42 17 32 3 65 -32 77 -40 14 -59 14 -59 1z"/>
<path d="M4130 3921 c-19 -4 -47 -14 -62 -22 -25 -13 -22 -14 53 -10 43 1 92
0 107 -5 26 -7 26 -8 -13 -14 -39 -7 -39 -7 15 -9 59 -2 91 -8 215 -39 81 -21
195 -34 195 -23 0 4 -13 12 -30 18 -16 6 -30 8 -30 4 0 -11 -109 5 -155 22
-84 32 -150 66 -130 68 30 2 -55 18 -95 17 -19 0 -51 -3 -70 -7z"/>
<path d="M5045 3904 c-61 -30 -76 -44 -49 -44 11 0 26 -6 33 -12 10 -11 11 -8
6 15 -5 17 -3 27 4 27 6 0 11 -11 11 -25 0 -43 111 -94 144 -66 11 9 15 7 19
-9 6 -25 -18 -26 -86 -6 -58 17 -61 11 -6 -10 22 -9 36 -20 30 -23 -6 -4 -7
-12 -1 -21 14 -21 12 -43 -2 -34 -7 4 -8 3 -4 -5 4 -6 12 -9 17 -6 5 4 9 2 9
-2 0 -23 30 -44 85 -58 59 -15 59 -15 100 11 86 56 108 76 94 85 -21 13 -97
11 -105 -3 -6 -9 -10 -5 -14 12 -3 15 -18 31 -37 40 -18 8 -33 20 -33 25 0 28
-58 78 -110 95 -43 15 -49 19 -27 20 16 0 26 4 22 10 -10 16 -47 11 -100 -16z
m185 -154 c0 -5 6 -7 13 -4 10 3 14 -6 15 -33 1 -33 0 -35 -10 -18 -7 11 -18
26 -25 33 -15 16 -17 32 -3 32 6 0 10 -4 10 -10z"/>
<path d="M1695 3900 c-14 -16 -15 -20 -4 -20 16 0 39 19 39 32 0 14 -16 9 -35
-12z"/>
<path d="M3748 3850 c-29 -38 -55 -70 -59 -70 -3 0 -37 14 -74 31 -81 36 -99
32 -23 -7 29 -15 63 -33 75 -41 21 -14 24 -11 76 59 61 83 70 98 63 98 -3 0
-29 -31 -58 -70z"/>
<path d="M2160 3889 c0 -23 4 -26 30 -25 16 1 30 4 30 7 0 7 -25 19 -36 18 -4
0 -11 5 -15 13 -6 9 -9 5 -9 -13z"/>
<path d="M4360 3896 c0 -3 14 -12 30 -21 17 -9 30 -13 30 -11 0 3 -13 12 -30
21 -16 9 -30 13 -30 11z"/>
<path d="M5210 3888 c10 -10 41 -17 89 -21 83 -5 76 7 -9 16 -30 3 -64 9 -75
13 -18 6 -18 5 -5 -8z"/>
<path d="M4680 3885 c0 -18 45 -22 125 -10 l90 13 -107 1 c-60 1 -108 -1 -108
-4z"/>
<path d="M2333 3850 c46 -14 56 -27 47 -63 -10 -46 -27 -77 -69 -121 -30 -32
-32 -36 -9 -22 15 10 46 43 69 74 23 31 53 68 66 81 13 13 21 27 18 30 -4 3
-10 -1 -15 -8 -7 -12 -14 -9 -40 12 -21 18 -43 27 -63 26 l-32 -1 28 -8z"/>
<path d="M4517 3849 c7 -7 15 -10 18 -7 3 3 -2 9 -12 12 -14 6 -15 5 -6 -5z"/>
<path d="M4753 3853 c-7 -2 -13 -11 -13 -19 0 -17 160 -185 171 -179 4 3 9 0
11 -6 5 -16 178 -16 188 1 18 29 -27 127 -70 150 -10 6 -29 10 -42 10 -18 0
-14 -5 19 -21 37 -18 93 -83 81 -94 -2 -2 -12 11 -22 30 -18 32 -91 75 -130
75 -8 0 -16 5 -18 10 -2 6 -20 13 -40 17 -34 5 -39 3 -47 -21 -6 -14 -8 -34
-5 -43 5 -15 4 -16 -5 -3 -14 20 -14 63 1 78 15 15 3 16 -24 1 -16 -9 -19 -17
-14 -42 6 -30 5 -30 -7 -12 -17 24 -18 57 -3 67 13 9 -11 10 -31 1z m118 -150
c13 -16 12 -17 -3 -4 -10 7 -18 15 -18 17 0 8 8 3 21 -13z"/>
<path d="M4950 3834 c30 -7 60 -12 65 -10 15 5 -66 26 -95 25 -15 -1 -2 -7 30
-15z"/>
<path d="M2150 3793 c-59 -60 -95 -158 -79 -217 5 -19 14 -38 19 -41 5 -3 5 8
-1 27 -5 18 -9 43 -9 56 0 21 3 23 33 16 41 -9 156 -11 151 -3 -2 4 7 14 21
23 43 28 77 89 73 132 -2 31 -8 40 -24 42 -32 5 -129 -36 -182 -75 l-47 -35
45 46 c24 25 40 46 35 46 -5 0 0 7 11 15 10 8 15 15 10 15 -5 0 -30 -21 -56
-47z"/>
<path d="M2240 3830 c-13 -9 -13 -10 0 -9 8 0 24 4 35 9 l20 9 -20 0 c-11 0
-27 -4 -35 -9z"/>
<path d="M3895 3809 c-6 -19 -9 -50 -5 -74 1 -11 6 3 10 30 7 50 5 70 -5 44z"/>
<path d="M2435 3770 c-16 -18 -48 -90 -40 -90 6 0 66 102 62 106 -2 2 -12 -5
-22 -16z"/>
<path d="M4700 3777 c0 -2 15 -16 33 -33 l32 -29 -29 33 c-28 30 -36 37 -36
29z"/>
<path d="M5503 3750 c-12 -5 -28 -20 -35 -34 -7 -13 -33 -39 -58 -57 -37 -27
-41 -34 -26 -37 11 -2 46 4 78 14 50 15 64 25 89 60 28 42 29 43 10 54 -23 12
-28 12 -58 0z"/>
<path d="M2044 3695 c-23 -62 -14 -65 13 -4 12 27 18 49 13 49 -5 0 -16 -20
-26 -45z"/>
<path d="M3891 3670 c0 -8 6 -28 14 -45 7 -16 14 -23 14 -15 0 8 -6 29 -14 45
-7 17 -14 23 -14 15z"/>
<path d="M1518 3648 c-32 -11 -35 -20 -13 -38 9 -7 25 -10 42 -5 26 6 27 6 10
-13 -23 -25 -21 -34 6 -30 12 2 22 10 22 18 0 8 6 26 14 39 11 19 11 25 0 32
-7 4 -18 4 -24 -1 -7 -5 -16 -6 -21 -1 -5 5 -21 4 -36 -1z"/>
<path d="M5593 3644 c-4 -11 1 -23 15 -35 14 -11 18 -19 10 -21 -17 -6 0 -28
23 -28 22 0 24 10 7 29 -11 11 -9 12 8 7 29 -9 54 2 54 24 0 19 -10 24 -73 35
-30 5 -39 3 -44 -11z"/>
<path d="M1966 3594 c-22 -8 -48 -22 -58 -31 -32 -29 -18 -115 22 -128 11 -3
27 -20 36 -36 12 -25 18 -28 30 -18 8 6 17 9 21 6 7 -8 33 11 33 25 0 5 -8 7
-18 4 -15 -5 -17 -1 -14 29 5 45 16 44 35 -2 l15 -38 11 29 c12 30 0 89 -20
101 -5 4 -7 16 -5 28 1 12 1 16 -1 8 -4 -10 -11 -7 -27 12 -20 24 -22 25 -60
11z m14 -13 c0 -5 -10 -11 -22 -14 -22 -6 -22 -6 -4 8 23 17 26 18 26 6z"/>
<path d="M1805 3585 c34 -16 75 -19 75 -6 0 9 -50 21 -84 20 -18 0 -16 -3 9
-14z"/>
<path d="M2187 3590 c17 -4 49 -4 70 0 32 6 26 8 -32 8 -53 0 -62 -2 -38 -8z"/>
<path d="M3581 3590 c0 -8 4 -22 9 -30 12 -18 12 -2 0 25 -6 13 -9 15 -9 5z"/>
<path d="M5116 3585 c-9 -26 -7 -32 5 -12 6 10 9 21 6 23 -2 3 -7 -2 -11 -11z"/>
<path d="M5320 3581 c0 -19 18 -21 56 -7 l39 15 -47 0 c-27 1 -48 -3 -48 -8z"/>
<path d="M5390 3568 c-19 -5 -39 -13 -43 -18 -9 -8 45 -124 63 -135 6 -3 19
-3 30 0 16 5 19 12 14 32 -6 23 -5 24 13 12 38 -23 79 14 52 47 -7 9 -31 28
-53 43 -36 24 -46 27 -76 19z"/>
<path d="M1725 3540 c-46 -37 -59 -55 -51 -76 7 -17 47 -18 65 -1 11 10 12 7
7 -15 -7 -31 5 -42 38 -34 17 4 31 23 51 71 16 36 25 68 22 71 -3 4 -25 9 -49
11 -37 4 -48 1 -83 -27z"/>
<path d="M2520 3496 c0 -39 14 -53 35 -36 21 17 19 47 -4 60 -29 15 -31 13
-31 -24z"/>
<path d="M3770 3458 c0 -40 5 -80 10 -88 7 -10 10 12 10 73 0 51 -4 87 -10 87
-6 0 -10 -31 -10 -72z"/>
<path d="M5320 3484 c-6 -14 -10 -30 -10 -35 0 -11 69 -43 77 -35 5 5 -46 96
-53 96 -3 0 -9 -12 -14 -26z"/>
<path d="M1844 3467 c-21 -43 -16 -52 20 -36 29 14 32 27 12 54 -13 19 -15 18
-32 -18z"/>
<path d="M2430 3476 c0 -3 8 -21 17 -41 18 -38 50 -47 73 -21 9 12 3 19 -39
41 -28 14 -51 23 -51 21z"/>
<path d="M5041 3424 c-23 -19 -31 -35 -33 -62 l-1 -37 -4 33 c-2 17 -8 32 -12
32 -5 0 -20 -23 -34 -52 -24 -48 -25 -54 -11 -69 15 -17 18 -16 47 2 18 10 41
19 52 19 57 0 80 55 54 129 -13 38 -19 38 -58 5z"/>
<path d="M1654 3425 c-6 -16 -29 -20 -37 -7 -2 4 -2 1 0 -6 1 -8 3 -22 3 -33
0 -22 54 -59 88 -59 15 0 26 8 32 25 10 26 4 55 -11 55 -5 0 -9 6 -9 14 0 26
-57 36 -66 11z"/>
<path d="M3817 3434 c-12 -12 -8 -89 8 -134 21 -59 19 -100 -7 -148 -29 -53
-158 -210 -268 -326 l-85 -90 69 59 c66 57 247 262 314 354 44 61 67 141 53
184 -14 39 -73 112 -84 101z m60 -138 c9 -56 -14 -50 -36 9 -12 31 -21 66 -21
78 0 18 4 16 26 -16 14 -21 28 -53 31 -71z"/>
<path d="M5156 3415 c4 -8 11 -15 16 -15 6 0 5 6 -2 15 -7 8 -14 15 -16 15 -2
0 -1 -7 2 -15z"/>
<path d="M1795 3390 c-10 -17 4 -62 18 -57 18 5 20 42 3 56 -10 9 -16 9 -21 1z"/>
<path d="M2040 3382 c-21 -17 -21 -19 -5 -32 15 -12 19 -12 31 5 16 21 18 45
5 45 -5 0 -19 -8 -31 -18z"/>
<path d="M5206 3361 c-4 -5 -2 -12 3 -15 5 -4 12 -2 15 3 4 5 2 12 -3 15 -5 4
-12 2 -15 -3z"/>
<path d="M1998 3316 c-20 -45 21 -88 48 -51 16 22 19 59 4 50 -6 -3 -13 1 -16
9 -9 23 -23 20 -36 -8z"/>
<path d="M2070 3257 c0 -51 25 -136 44 -149 12 -8 118 81 110 93 -3 5 -13 9
-23 9 -10 0 -24 7 -32 16 -11 13 -9 14 16 8 54 -13 21 19 -48 47 l-67 27 0
-51z m90 -79 c-12 -10 -32 -18 -44 -17 -17 0 -15 3 12 17 21 10 31 21 27 30
-5 13 -3 13 11 1 15 -12 14 -15 -6 -31z"/>
<path d="M5460 3294 c0 -20 17 -44 32 -44 15 0 8 27 -12 45 -19 18 -20 17 -20
-1z"/>
<path d="M5063 3281 c-66 -21 -69 -25 -40 -47 12 -11 26 -27 30 -36 6 -18 53
-35 64 -24 10 10 16 126 7 125 -5 -1 -32 -9 -61 -18z"/>
<path d="M4980 3230 c0 -11 7 -20 15 -20 13 0 14 4 5 20 -6 11 -13 20 -15 20
-3 0 -5 -9 -5 -20z"/>
<path d="M3771 3214 c0 -11 3 -14 6 -6 3 7 2 16 -1 19 -3 4 -6 -2 -5 -13z"/>
<path d="M2040 3197 c0 -13 9 -32 20 -42 24 -22 25 -18 5 29 -18 42 -25 46
-25 13z"/>
<path d="M5135 3189 c-10 -43 -27 -45 -90 -13 -30 15 -58 24 -62 20 -8 -7 85
-95 100 -96 5 0 11 9 14 20 3 11 11 20 18 20 17 0 45 33 45 53 0 30 -18 27
-25 -4z"/>
<path d="M4891 3201 c-11 -7 -10 -11 7 -20 11 -6 28 -8 38 -4 12 4 15 3 10 -5
-4 -7 -2 -12 3 -12 18 0 12 18 -11 34 -26 18 -28 19 -47 7z"/>
<path d="M5260 3190 c0 -5 5 -10 11 -10 5 0 7 5 4 10 -3 6 -8 10 -11 10 -2 0
-4 -4 -4 -10z"/>
<path d="M1940 3151 c0 -12 6 -21 16 -21 9 0 14 7 12 17 -5 25 -28 28 -28 4z"/>
<path d="M3956 3119 c-3 -17 -6 -43 -6 -58 0 -15 -6 -50 -14 -79 -7 -29 -11
-52 -9 -52 12 0 33 76 39 143 7 78 2 103 -10 46z"/>
<path d="M3903 3108 c-6 -13 -32 -50 -58 -83 l-48 -60 46 44 c43 41 85 107 74
117 -2 2 -8 -6 -14 -18z"/>
<path d="M2097 3083 c-14 -13 -7 -25 8 -13 8 6 19 9 25 5 5 -3 10 -1 10 4 0
12 -33 15 -43 4z"/>
<path d="M5080 3080 c0 -5 7 -10 15 -10 8 0 15 5 15 10 0 6 -7 10 -15 10 -8 0
-15 -4 -15 -10z"/>
<path d="M5050 3069 c0 -5 5 -7 10 -4 6 3 10 8 10 11 0 2 -4 4 -10 4 -5 0 -10
-5 -10 -11z"/>
<path d="M2107 3053 c-21 -20 1 -73 30 -73 19 0 17 66 -3 74 -19 7 -19 7 -27
-1z"/>
<path d="M5148 3033 c-22 -6 -30 -30 -17 -55 10 -19 12 -19 29 -3 19 17 53 17
92 1 13 -6 15 -3 11 14 -10 40 -59 58 -115 43z"/>
<path d="M3946 2905 c-9 -26 -7 -32 5 -12 6 10 9 21 6 23 -2 3 -7 -2 -11 -11z"/>
<path d="M3638 2834 c-59 -47 -80 -71 -30 -35 38 27 98 80 92 81 -3 0 -31 -21
-62 -46z"/>
<path d="M3801 2805 c-77 -89 -91 -175 -45 -290 15 -36 28 -65 29 -63 2 2 -8
41 -21 88 -29 98 -27 129 12 196 l28 47 11 -56 c6 -31 14 -60 18 -63 10 -10 9
3 -8 71 -12 52 -12 63 1 83 21 33 10 27 -25 -13z"/>
<path d="M3906 2809 c-10 -17 -16 -33 -13 -36 3 -3 13 9 22 27 9 18 15 34 13
36 -2 2 -12 -10 -22 -27z"/>
<path d="M3397 2663 c-32 -51 -49 -83 -43 -83 2 0 13 15 24 33 11 19 27 46 37
60 9 15 15 27 11 27 -3 0 -16 -17 -29 -37z"/>
<path d="M3501 2625 c-45 -49 -156 -213 -149 -221 11 -10 145 147 175 204 18
34 29 62 24 62 -5 0 -27 -20 -50 -45z"/>
<path d="M3987 2539 c10 -17 24 -36 32 -42 8 -7 2 7 -14 31 -32 49 -45 57 -18
11z"/>
<path d="M3488 2512 c-9 -15 -41 -51 -72 -80 -30 -29 -51 -52 -47 -52 12 0
141 138 141 150 0 16 -5 12 -22 -18z"/>
<path d="M3181 2467 c-30 -49 -101 -112 -161 -142 -29 -15 -50 -28 -48 -31 6
-5 105 43 142 69 28 20 102 125 93 133 -3 3 -14 -10 -26 -29z"/>
<path d="M4440 2365 c19 -19 36 -35 39 -35 3 0 -10 16 -29 35 -19 19 -36 35
-39 35 -3 0 10 -16 29 -35z"/>
<path d="M3920 2362 c0 -15 100 -135 107 -128 6 6 -56 93 -86 120 -12 11 -21
14 -21 8z"/>
<path d="M3181 2277 c-42 -65 -47 -76 -23 -54 29 28 88 125 80 132 -2 3 -28
-33 -57 -78z"/>
<path d="M4500 2355 c0 -14 156 -46 291 -59 86 -9 176 -23 199 -31 49 -17 72
-19 50 -5 -39 26 -155 50 -285 60 -77 6 -165 17 -195 25 -63 17 -60 16 -60 10z"/>
<path d="M4518 2303 c13 -13 28 -23 35 -23 7 0 3 6 -8 12 -11 6 -27 16 -35 22
-9 6 -5 1 8 -11z"/>
<path d="M4200 2305 c0 -8 102 -57 107 -51 3 2 -18 16 -46 30 -51 26 -61 30
-61 21z"/>
<path d="M3931 2277 c-1 -14 39 -67 106 -140 38 -41 67 -84 74 -108 7 -21 14
-37 17 -35 2 3 -3 26 -12 52 -9 26 -14 49 -12 51 2 2 15 -1 30 -6 14 -6 56
-13 93 -16 l68 -5 -88 19 c-123 27 -192 72 -259 171 -9 14 -17 21 -17 17z"/>
<path d="M3123 2134 c-32 -23 -121 -44 -185 -44 -32 0 -58 -4 -58 -10 0 -14
64 -12 144 5 38 8 71 13 73 11 2 -1 -4 -19 -12 -39 -8 -20 -15 -49 -14 -64 0
-25 2 -23 13 12 15 49 43 104 64 128 18 21 5 22 -25 1z"/>
<path d="M4851 5361 c-22 -6 -22 -8 -7 -20 18 -15 29 -10 32 14 1 8 2 15 1 14
-1 -1 -13 -4 -26 -8z"/>
<path d="M2955 2600 c-8 -13 85 -13 105 0 11 7 -1 10 -42 10 -31 0 -60 -4 -63
-10z"/>
<path d="M2625 2359 c-16 -5 -98 -18 -180 -28 -83 -11 -172 -27 -198 -36 -64
-22 -135 -53 -120 -54 6 -1 31 7 55 17 64 28 126 41 240 53 101 10 209 32 238
50 19 11 4 10 -35 -2z"/>
</g>
</svg>
